M48
METRIC,TZ
T1C0.400
T2C0.500
T3C0.750
T4C0.800
T5C1.000
%
G90
G05
T1
X2400Y32300
X2450Y7450
X2500Y25700
X2500Y20100
X2500Y17550
X2500Y11200
X6100Y26100
X6100Y9350
X6100Y8050
X6600Y33900
X7500Y28000
X10950Y30250
X11200Y17000
X11200Y14700
X11800Y33900
X11800Y32200
X12000Y28000
X12700Y29900
X14500Y28000
X14700Y17000
X14700Y14700
X17000Y27900
X18000Y33800
X18600Y31200
X20500Y28300
X22200Y25600
X22700Y33800
X24100Y20700
X24100Y7900
X24200Y13800
X24200Y11800
X24300Y24600
X24300Y17900
X24300Y15800
X25500Y21200
X25700Y24600
X26400Y33700
X26400Y29900
X26400Y26700
T2
X21000Y32650
X21000Y31400
X25200Y32650
X25200Y31400
T3
X9200Y32200
X9200Y30200
T4
X25500Y18800
X25500Y16800
X25500Y14800
X25500Y12800
X25500Y10800
X25500Y8800
X14900Y32400
X14900Y29900
T5
X4100Y32900
X4100Y30360
X4100Y27820
T0
M30
