G04 #@! TF.GenerationSoftware,KiCad,Pcbnew,(5.1.6)-1*
G04 #@! TF.CreationDate,2020-09-12T19:57:54+12:00*
G04 #@! TF.ProjectId,ESPAnt,45535041-6e74-42e6-9b69-6361645f7063,rev?*
G04 #@! TF.SameCoordinates,PX42c1d80PY8f0d180*
G04 #@! TF.FileFunction,Soldermask,Top*
G04 #@! TF.FilePolarity,Negative*
%FSLAX46Y46*%
G04 Gerber Fmt 4.6, Leading zero omitted, Abs format (unit mm)*
G04 Created by KiCad (PCBNEW (5.1.6)-1) date 2020-09-12 19:57:54*
%MOMM*%
%LPD*%
G01*
G04 APERTURE LIST*
%ADD10C,0.150000*%
G04 APERTURE END LIST*
D10*
G36*
X9601000Y7449000D02*
G01*
X8599000Y7449000D01*
X8599000Y8351000D01*
X9601000Y8351000D01*
X9601000Y7449000D01*
G37*
G36*
X7901000Y7449000D02*
G01*
X6899000Y7449000D01*
X6899000Y8351000D01*
X7901000Y8351000D01*
X7901000Y7449000D01*
G37*
G36*
X26226000Y8074000D02*
G01*
X24774000Y8074000D01*
X24774000Y9526000D01*
X26226000Y9526000D01*
X26226000Y8074000D01*
G37*
G36*
X9601000Y9049000D02*
G01*
X8599000Y9049000D01*
X8599000Y9951000D01*
X9601000Y9951000D01*
X9601000Y9049000D01*
G37*
G36*
X7901000Y9049000D02*
G01*
X6899000Y9049000D01*
X6899000Y9951000D01*
X7901000Y9951000D01*
X7901000Y9049000D01*
G37*
G36*
X4701000Y10049000D02*
G01*
X3699000Y10049000D01*
X3699000Y10951000D01*
X4701000Y10951000D01*
X4701000Y10049000D01*
G37*
G36*
X25711766Y11498101D02*
G01*
X25843888Y11443374D01*
X25843890Y11443373D01*
X25962798Y11363921D01*
X26063921Y11262798D01*
X26063922Y11262796D01*
X26143374Y11143888D01*
X26198101Y11011766D01*
X26226000Y10871506D01*
X26226000Y10728494D01*
X26198101Y10588234D01*
X26143374Y10456112D01*
X26143373Y10456110D01*
X26063921Y10337202D01*
X25962798Y10236079D01*
X25843890Y10156627D01*
X25843889Y10156626D01*
X25843888Y10156626D01*
X25711766Y10101899D01*
X25571506Y10074000D01*
X25428494Y10074000D01*
X25288234Y10101899D01*
X25156112Y10156626D01*
X25156111Y10156626D01*
X25156110Y10156627D01*
X25037202Y10236079D01*
X24936079Y10337202D01*
X24856627Y10456110D01*
X24856626Y10456112D01*
X24801899Y10588234D01*
X24774000Y10728494D01*
X24774000Y10871506D01*
X24801899Y11011766D01*
X24856626Y11143888D01*
X24936078Y11262796D01*
X24936079Y11262798D01*
X25037202Y11363921D01*
X25156110Y11443373D01*
X25156112Y11443374D01*
X25288234Y11498101D01*
X25428494Y11526000D01*
X25571506Y11526000D01*
X25711766Y11498101D01*
G37*
G36*
X21851000Y10799000D02*
G01*
X20949000Y10799000D01*
X20949000Y11801000D01*
X21851000Y11801000D01*
X21851000Y10799000D01*
G37*
G36*
X23451000Y10799000D02*
G01*
X22549000Y10799000D01*
X22549000Y11801000D01*
X23451000Y11801000D01*
X23451000Y10799000D01*
G37*
G36*
X15301000Y11549000D02*
G01*
X11399000Y11549000D01*
X11399000Y13651000D01*
X15301000Y13651000D01*
X15301000Y11549000D01*
G37*
G36*
X4701000Y11649000D02*
G01*
X3699000Y11649000D01*
X3699000Y12551000D01*
X4701000Y12551000D01*
X4701000Y11649000D01*
G37*
G36*
X25711766Y13498101D02*
G01*
X25843888Y13443374D01*
X25843890Y13443373D01*
X25962798Y13363921D01*
X26063921Y13262798D01*
X26143373Y13143890D01*
X26143374Y13143888D01*
X26198101Y13011766D01*
X26226000Y12871506D01*
X26226000Y12728494D01*
X26198101Y12588234D01*
X26143374Y12456112D01*
X26143373Y12456110D01*
X26063921Y12337202D01*
X25962798Y12236079D01*
X25843890Y12156627D01*
X25843889Y12156626D01*
X25843888Y12156626D01*
X25711766Y12101899D01*
X25571506Y12074000D01*
X25428494Y12074000D01*
X25288234Y12101899D01*
X25156112Y12156626D01*
X25156111Y12156626D01*
X25156110Y12156627D01*
X25037202Y12236079D01*
X24936079Y12337202D01*
X24856627Y12456110D01*
X24856626Y12456112D01*
X24801899Y12588234D01*
X24774000Y12728494D01*
X24774000Y12871506D01*
X24801899Y13011766D01*
X24856626Y13143888D01*
X24856627Y13143890D01*
X24936079Y13262798D01*
X25037202Y13363921D01*
X25156110Y13443373D01*
X25156112Y13443374D01*
X25288234Y13498101D01*
X25428494Y13526000D01*
X25571506Y13526000D01*
X25711766Y13498101D01*
G37*
G36*
X6251000Y13199000D02*
G01*
X5349000Y13199000D01*
X5349000Y14201000D01*
X6251000Y14201000D01*
X6251000Y13199000D01*
G37*
G36*
X4651000Y13199000D02*
G01*
X3749000Y13199000D01*
X3749000Y14201000D01*
X4651000Y14201000D01*
X4651000Y13199000D01*
G37*
G36*
X23451000Y13299000D02*
G01*
X22549000Y13299000D01*
X22549000Y14301000D01*
X23451000Y14301000D01*
X23451000Y13299000D01*
G37*
G36*
X21851000Y13299000D02*
G01*
X20949000Y13299000D01*
X20949000Y14301000D01*
X21851000Y14301000D01*
X21851000Y13299000D01*
G37*
G36*
X25711766Y15498101D02*
G01*
X25843888Y15443374D01*
X25843890Y15443373D01*
X25962798Y15363921D01*
X26063921Y15262798D01*
X26063922Y15262796D01*
X26143374Y15143888D01*
X26198101Y15011766D01*
X26226000Y14871506D01*
X26226000Y14728494D01*
X26198101Y14588234D01*
X26143374Y14456112D01*
X26143373Y14456110D01*
X26063921Y14337202D01*
X25962798Y14236079D01*
X25843890Y14156627D01*
X25843889Y14156626D01*
X25843888Y14156626D01*
X25711766Y14101899D01*
X25571506Y14074000D01*
X25428494Y14074000D01*
X25288234Y14101899D01*
X25156112Y14156626D01*
X25156111Y14156626D01*
X25156110Y14156627D01*
X25037202Y14236079D01*
X24936079Y14337202D01*
X24856627Y14456110D01*
X24856626Y14456112D01*
X24801899Y14588234D01*
X24774000Y14728494D01*
X24774000Y14871506D01*
X24801899Y15011766D01*
X24856626Y15143888D01*
X24936078Y15262796D01*
X24936079Y15262798D01*
X25037202Y15363921D01*
X25156110Y15443373D01*
X25156112Y15443374D01*
X25288234Y15498101D01*
X25428494Y15526000D01*
X25571506Y15526000D01*
X25711766Y15498101D01*
G37*
G36*
X25711766Y17498101D02*
G01*
X25843888Y17443374D01*
X25843890Y17443373D01*
X25962798Y17363921D01*
X26063921Y17262798D01*
X26063922Y17262796D01*
X26143374Y17143888D01*
X26198101Y17011766D01*
X26226000Y16871506D01*
X26226000Y16728494D01*
X26198101Y16588234D01*
X26143374Y16456112D01*
X26143373Y16456110D01*
X26063921Y16337202D01*
X25962798Y16236079D01*
X25843890Y16156627D01*
X25843889Y16156626D01*
X25843888Y16156626D01*
X25711766Y16101899D01*
X25571506Y16074000D01*
X25428494Y16074000D01*
X25288234Y16101899D01*
X25156112Y16156626D01*
X25156111Y16156626D01*
X25156110Y16156627D01*
X25037202Y16236079D01*
X24936079Y16337202D01*
X24856627Y16456110D01*
X24856626Y16456112D01*
X24801899Y16588234D01*
X24774000Y16728494D01*
X24774000Y16871506D01*
X24801899Y17011766D01*
X24856626Y17143888D01*
X24936078Y17262796D01*
X24936079Y17262798D01*
X25037202Y17363921D01*
X25156110Y17443373D01*
X25156112Y17443374D01*
X25288234Y17498101D01*
X25428494Y17526000D01*
X25571506Y17526000D01*
X25711766Y17498101D01*
G37*
G36*
X4651000Y17049000D02*
G01*
X3749000Y17049000D01*
X3749000Y18051000D01*
X4651000Y18051000D01*
X4651000Y17049000D01*
G37*
G36*
X6251000Y17049000D02*
G01*
X5349000Y17049000D01*
X5349000Y18051000D01*
X6251000Y18051000D01*
X6251000Y17049000D01*
G37*
G36*
X8101000Y17099000D02*
G01*
X7099000Y17099000D01*
X7099000Y18001000D01*
X8101000Y18001000D01*
X8101000Y17099000D01*
G37*
G36*
X16451000Y17849000D02*
G01*
X14849000Y17849000D01*
X14849000Y19951000D01*
X16451000Y19951000D01*
X16451000Y17849000D01*
G37*
G36*
X14151000Y17849000D02*
G01*
X12549000Y17849000D01*
X12549000Y19951000D01*
X14151000Y19951000D01*
X14151000Y17849000D01*
G37*
G36*
X11851000Y17849000D02*
G01*
X10249000Y17849000D01*
X10249000Y19951000D01*
X11851000Y19951000D01*
X11851000Y17849000D01*
G37*
G36*
X25711766Y19498101D02*
G01*
X25843888Y19443374D01*
X25843890Y19443373D01*
X25962798Y19363921D01*
X26063921Y19262798D01*
X26063922Y19262796D01*
X26143374Y19143888D01*
X26198101Y19011766D01*
X26226000Y18871506D01*
X26226000Y18728494D01*
X26198101Y18588234D01*
X26143374Y18456112D01*
X26143373Y18456110D01*
X26063921Y18337202D01*
X25962798Y18236079D01*
X25843890Y18156627D01*
X25843889Y18156626D01*
X25843888Y18156626D01*
X25711766Y18101899D01*
X25571506Y18074000D01*
X25428494Y18074000D01*
X25288234Y18101899D01*
X25156112Y18156626D01*
X25156111Y18156626D01*
X25156110Y18156627D01*
X25037202Y18236079D01*
X24936079Y18337202D01*
X24856627Y18456110D01*
X24856626Y18456112D01*
X24801899Y18588234D01*
X24774000Y18728494D01*
X24774000Y18871506D01*
X24801899Y19011766D01*
X24856626Y19143888D01*
X24936078Y19262796D01*
X24936079Y19262798D01*
X25037202Y19363921D01*
X25156110Y19443373D01*
X25156112Y19443374D01*
X25288234Y19498101D01*
X25428494Y19526000D01*
X25571506Y19526000D01*
X25711766Y19498101D01*
G37*
G36*
X21851000Y18299000D02*
G01*
X20949000Y18299000D01*
X20949000Y19301000D01*
X21851000Y19301000D01*
X21851000Y18299000D01*
G37*
G36*
X20151000Y18299000D02*
G01*
X19249000Y18299000D01*
X19249000Y19301000D01*
X20151000Y19301000D01*
X20151000Y18299000D01*
G37*
G36*
X18551000Y18299000D02*
G01*
X17649000Y18299000D01*
X17649000Y19301000D01*
X18551000Y19301000D01*
X18551000Y18299000D01*
G37*
G36*
X23451000Y18299000D02*
G01*
X22549000Y18299000D01*
X22549000Y19301000D01*
X23451000Y19301000D01*
X23451000Y18299000D01*
G37*
G36*
X8101000Y18699000D02*
G01*
X7099000Y18699000D01*
X7099000Y19601000D01*
X8101000Y19601000D01*
X8101000Y18699000D01*
G37*
G36*
X4601000Y19649000D02*
G01*
X3599000Y19649000D01*
X3599000Y20551000D01*
X4601000Y20551000D01*
X4601000Y19649000D01*
G37*
G36*
X11501000Y20599000D02*
G01*
X10599000Y20599000D01*
X10599000Y21601000D01*
X11501000Y21601000D01*
X11501000Y20599000D01*
G37*
G36*
X13101000Y20599000D02*
G01*
X12199000Y20599000D01*
X12199000Y21601000D01*
X13101000Y21601000D01*
X13101000Y20599000D01*
G37*
G36*
X14501000Y20599000D02*
G01*
X13599000Y20599000D01*
X13599000Y21601000D01*
X14501000Y21601000D01*
X14501000Y20599000D01*
G37*
G36*
X16101000Y20599000D02*
G01*
X15199000Y20599000D01*
X15199000Y21601000D01*
X16101000Y21601000D01*
X16101000Y20599000D01*
G37*
G36*
X4601000Y21249000D02*
G01*
X3599000Y21249000D01*
X3599000Y22151000D01*
X4601000Y22151000D01*
X4601000Y21249000D01*
G37*
G36*
X25051000Y22139000D02*
G01*
X24349000Y22139000D01*
X24349000Y23741000D01*
X25051000Y23741000D01*
X25051000Y22139000D01*
G37*
G36*
X24051000Y22139000D02*
G01*
X23349000Y22139000D01*
X23349000Y23741000D01*
X24051000Y23741000D01*
X24051000Y22139000D01*
G37*
G36*
X23051000Y22139000D02*
G01*
X22349000Y22139000D01*
X22349000Y23741000D01*
X23051000Y23741000D01*
X23051000Y22139000D01*
G37*
G36*
X22051000Y22139000D02*
G01*
X21349000Y22139000D01*
X21349000Y23741000D01*
X22051000Y23741000D01*
X22051000Y22139000D01*
G37*
G36*
X26051000Y22139000D02*
G01*
X25349000Y22139000D01*
X25349000Y23741000D01*
X26051000Y23741000D01*
X26051000Y22139000D01*
G37*
G36*
X20501000Y24349000D02*
G01*
X19499000Y24349000D01*
X19499000Y25251000D01*
X20501000Y25251000D01*
X20501000Y24349000D01*
G37*
G36*
X17451000Y25549000D02*
G01*
X16549000Y25549000D01*
X16549000Y26551000D01*
X17451000Y26551000D01*
X17451000Y25549000D01*
G37*
G36*
X15851000Y25549000D02*
G01*
X14949000Y25549000D01*
X14949000Y26551000D01*
X15851000Y26551000D01*
X15851000Y25549000D01*
G37*
G36*
X20501000Y25949000D02*
G01*
X19499000Y25949000D01*
X19499000Y26851000D01*
X20501000Y26851000D01*
X20501000Y25949000D01*
G37*
G36*
X4213512Y28716073D02*
G01*
X4362812Y28686376D01*
X4526784Y28618456D01*
X4674354Y28519853D01*
X4799853Y28394354D01*
X4898456Y28246784D01*
X4966376Y28082812D01*
X5001000Y27908741D01*
X5001000Y27731259D01*
X4966376Y27557188D01*
X4898456Y27393216D01*
X4799853Y27245646D01*
X4674354Y27120147D01*
X4526784Y27021544D01*
X4362812Y26953624D01*
X4213512Y26923927D01*
X4188742Y26919000D01*
X4011258Y26919000D01*
X3986488Y26923927D01*
X3837188Y26953624D01*
X3673216Y27021544D01*
X3525646Y27120147D01*
X3400147Y27245646D01*
X3301544Y27393216D01*
X3233624Y27557188D01*
X3199000Y27731259D01*
X3199000Y27908741D01*
X3233624Y28082812D01*
X3301544Y28246784D01*
X3400147Y28394354D01*
X3525646Y28519853D01*
X3673216Y28618456D01*
X3837188Y28686376D01*
X3986488Y28716073D01*
X4011258Y28721000D01*
X4188742Y28721000D01*
X4213512Y28716073D01*
G37*
G36*
X26051000Y27459000D02*
G01*
X25349000Y27459000D01*
X25349000Y29061000D01*
X26051000Y29061000D01*
X26051000Y27459000D01*
G37*
G36*
X22051000Y27459000D02*
G01*
X21349000Y27459000D01*
X21349000Y29061000D01*
X22051000Y29061000D01*
X22051000Y27459000D01*
G37*
G36*
X23051000Y27459000D02*
G01*
X22349000Y27459000D01*
X22349000Y29061000D01*
X23051000Y29061000D01*
X23051000Y27459000D01*
G37*
G36*
X24051000Y27459000D02*
G01*
X23349000Y27459000D01*
X23349000Y29061000D01*
X24051000Y29061000D01*
X24051000Y27459000D01*
G37*
G36*
X25051000Y27459000D02*
G01*
X24349000Y27459000D01*
X24349000Y29061000D01*
X25051000Y29061000D01*
X25051000Y27459000D01*
G37*
G36*
X16201000Y28949000D02*
G01*
X13599000Y28949000D01*
X13599000Y30851000D01*
X16201000Y30851000D01*
X16201000Y28949000D01*
G37*
G36*
X4213512Y31256073D02*
G01*
X4362812Y31226376D01*
X4526784Y31158456D01*
X4674354Y31059853D01*
X4799853Y30934354D01*
X4898456Y30786784D01*
X4966376Y30622812D01*
X5001000Y30448741D01*
X5001000Y30271259D01*
X4966376Y30097188D01*
X4898456Y29933216D01*
X4799853Y29785646D01*
X4674354Y29660147D01*
X4526784Y29561544D01*
X4362812Y29493624D01*
X4213512Y29463927D01*
X4188742Y29459000D01*
X4011258Y29459000D01*
X3986488Y29463927D01*
X3837188Y29493624D01*
X3673216Y29561544D01*
X3525646Y29660147D01*
X3400147Y29785646D01*
X3301544Y29933216D01*
X3233624Y30097188D01*
X3199000Y30271259D01*
X3199000Y30448741D01*
X3233624Y30622812D01*
X3301544Y30786784D01*
X3400147Y30934354D01*
X3525646Y31059853D01*
X3673216Y31158456D01*
X3837188Y31226376D01*
X3986488Y31256073D01*
X4011258Y31261000D01*
X4188742Y31261000D01*
X4213512Y31256073D01*
G37*
G36*
X9513855Y30847860D02*
G01*
X9577618Y30841580D01*
X9668404Y30814040D01*
X9700336Y30804354D01*
X9813425Y30743906D01*
X9912554Y30662554D01*
X9993906Y30563425D01*
X10054354Y30450336D01*
X10054838Y30448741D01*
X10091580Y30327618D01*
X10104149Y30200000D01*
X10091580Y30072382D01*
X10064040Y29981596D01*
X10054354Y29949664D01*
X9993906Y29836575D01*
X9912554Y29737446D01*
X9813425Y29656094D01*
X9700336Y29595646D01*
X9668404Y29585960D01*
X9577618Y29558420D01*
X9513855Y29552140D01*
X9481974Y29549000D01*
X8918026Y29549000D01*
X8886145Y29552140D01*
X8822382Y29558420D01*
X8731596Y29585960D01*
X8699664Y29595646D01*
X8586575Y29656094D01*
X8487446Y29737446D01*
X8406094Y29836575D01*
X8345646Y29949664D01*
X8335960Y29981596D01*
X8308420Y30072382D01*
X8295851Y30200000D01*
X8308420Y30327618D01*
X8345162Y30448741D01*
X8345646Y30450336D01*
X8406094Y30563425D01*
X8487446Y30662554D01*
X8586575Y30743906D01*
X8699664Y30804354D01*
X8731596Y30814040D01*
X8822382Y30841580D01*
X8886145Y30847860D01*
X8918026Y30851000D01*
X9481974Y30851000D01*
X9513855Y30847860D01*
G37*
G36*
X21476000Y30924000D02*
G01*
X20524000Y30924000D01*
X20524000Y31876000D01*
X21476000Y31876000D01*
X21476000Y30924000D01*
G37*
G36*
X25676000Y30924000D02*
G01*
X24724000Y30924000D01*
X24724000Y31876000D01*
X25676000Y31876000D01*
X25676000Y30924000D01*
G37*
G36*
X15436425Y33337240D02*
G01*
X15436428Y33337239D01*
X15436429Y33337239D01*
X15615693Y33282860D01*
X15615696Y33282858D01*
X15615697Y33282858D01*
X15780903Y33194554D01*
X15925712Y33075712D01*
X16044554Y32930903D01*
X16120486Y32788843D01*
X16132860Y32765693D01*
X16187239Y32586429D01*
X16187240Y32586425D01*
X16205601Y32400000D01*
X16187240Y32213575D01*
X16187239Y32213572D01*
X16187239Y32213571D01*
X16132860Y32034307D01*
X16132858Y32034304D01*
X16132858Y32034303D01*
X16044554Y31869097D01*
X15925712Y31724288D01*
X15780903Y31605446D01*
X15675299Y31549000D01*
X15615693Y31517140D01*
X15436429Y31462761D01*
X15436428Y31462761D01*
X15436425Y31462760D01*
X15296718Y31449000D01*
X14503282Y31449000D01*
X14363575Y31462760D01*
X14363572Y31462761D01*
X14363571Y31462761D01*
X14184307Y31517140D01*
X14124701Y31549000D01*
X14019097Y31605446D01*
X13874288Y31724288D01*
X13755446Y31869097D01*
X13667142Y32034303D01*
X13667142Y32034304D01*
X13667140Y32034307D01*
X13612761Y32213571D01*
X13612761Y32213572D01*
X13612760Y32213575D01*
X13594399Y32400000D01*
X13612760Y32586425D01*
X13612761Y32586429D01*
X13667140Y32765693D01*
X13679514Y32788843D01*
X13755446Y32930903D01*
X13874288Y33075712D01*
X14019097Y33194554D01*
X14184303Y33282858D01*
X14184304Y33282858D01*
X14184307Y33282860D01*
X14363571Y33337239D01*
X14363572Y33337239D01*
X14363575Y33337240D01*
X14503282Y33351000D01*
X15296718Y33351000D01*
X15436425Y33337240D01*
G37*
G36*
X10101000Y31549000D02*
G01*
X8299000Y31549000D01*
X8299000Y32851000D01*
X10101000Y32851000D01*
X10101000Y31549000D01*
G37*
G36*
X5001000Y31999000D02*
G01*
X3199000Y31999000D01*
X3199000Y33801000D01*
X5001000Y33801000D01*
X5001000Y31999000D01*
G37*
G36*
X25338843Y33107708D02*
G01*
X25389588Y33086689D01*
X25425470Y33071826D01*
X25503432Y33019733D01*
X25569733Y32953432D01*
X25621826Y32875470D01*
X25636689Y32839588D01*
X25657708Y32788843D01*
X25676000Y32696883D01*
X25676000Y32603117D01*
X25657708Y32511157D01*
X25636689Y32460412D01*
X25621826Y32424530D01*
X25569733Y32346568D01*
X25503432Y32280267D01*
X25425470Y32228174D01*
X25390224Y32213575D01*
X25338843Y32192292D01*
X25246883Y32174000D01*
X25153117Y32174000D01*
X25061157Y32192292D01*
X25009776Y32213575D01*
X24974530Y32228174D01*
X24896568Y32280267D01*
X24830267Y32346568D01*
X24778174Y32424530D01*
X24763311Y32460412D01*
X24742292Y32511157D01*
X24724000Y32603117D01*
X24724000Y32696883D01*
X24742292Y32788843D01*
X24763311Y32839588D01*
X24778174Y32875470D01*
X24830267Y32953432D01*
X24896568Y33019733D01*
X24974530Y33071826D01*
X25010412Y33086689D01*
X25061157Y33107708D01*
X25153117Y33126000D01*
X25246883Y33126000D01*
X25338843Y33107708D01*
G37*
G36*
X21138843Y33107708D02*
G01*
X21189588Y33086689D01*
X21225470Y33071826D01*
X21303432Y33019733D01*
X21369733Y32953432D01*
X21421826Y32875470D01*
X21436689Y32839588D01*
X21457708Y32788843D01*
X21476000Y32696883D01*
X21476000Y32603117D01*
X21457708Y32511157D01*
X21436689Y32460412D01*
X21421826Y32424530D01*
X21369733Y32346568D01*
X21303432Y32280267D01*
X21225470Y32228174D01*
X21190224Y32213575D01*
X21138843Y32192292D01*
X21046883Y32174000D01*
X20953117Y32174000D01*
X20861157Y32192292D01*
X20809776Y32213575D01*
X20774530Y32228174D01*
X20696568Y32280267D01*
X20630267Y32346568D01*
X20578174Y32424530D01*
X20563311Y32460412D01*
X20542292Y32511157D01*
X20524000Y32603117D01*
X20524000Y32696883D01*
X20542292Y32788843D01*
X20563311Y32839588D01*
X20578174Y32875470D01*
X20630267Y32953432D01*
X20696568Y33019733D01*
X20774530Y33071826D01*
X20810412Y33086689D01*
X20861157Y33107708D01*
X20953117Y33126000D01*
X21046883Y33126000D01*
X21138843Y33107708D01*
G37*
M02*
