G04 #@! TF.GenerationSoftware,KiCad,Pcbnew,(5.1.6)-1*
G04 #@! TF.CreationDate,2020-09-12T19:57:54+12:00*
G04 #@! TF.ProjectId,ESPAnt,45535041-6e74-42e6-9b69-6361645f7063,rev?*
G04 #@! TF.SameCoordinates,PX42c1d80PY8f0d180*
G04 #@! TF.FileFunction,Copper,L2,Bot*
G04 #@! TF.FilePolarity,Positive*
%FSLAX46Y46*%
G04 Gerber Fmt 4.6, Leading zero omitted, Abs format (unit mm)*
G04 Created by KiCad (PCBNEW (5.1.6)-1) date 2020-09-12 19:57:54*
%MOMM*%
%LPD*%
G01*
G04 APERTURE LIST*
G04 #@! TA.AperFunction,ComponentPad*
%ADD10R,0.850000X0.850000*%
G04 #@! TD*
G04 #@! TA.AperFunction,ComponentPad*
%ADD11C,0.850000*%
G04 #@! TD*
G04 #@! TA.AperFunction,SMDPad,CuDef*
%ADD12R,6.000000X6.000000*%
G04 #@! TD*
G04 #@! TA.AperFunction,SMDPad,CuDef*
%ADD13O,2.500000X0.900000*%
G04 #@! TD*
G04 #@! TA.AperFunction,SMDPad,CuDef*
%ADD14O,0.900000X2.500000*%
G04 #@! TD*
G04 #@! TA.AperFunction,ComponentPad*
%ADD15R,1.350000X1.350000*%
G04 #@! TD*
G04 #@! TA.AperFunction,ComponentPad*
%ADD16O,1.350000X1.350000*%
G04 #@! TD*
G04 #@! TA.AperFunction,ComponentPad*
%ADD17R,1.700000X1.700000*%
G04 #@! TD*
G04 #@! TA.AperFunction,ComponentPad*
%ADD18O,1.700000X1.700000*%
G04 #@! TD*
G04 #@! TA.AperFunction,SMDPad,CuDef*
%ADD19R,0.900000X0.800000*%
G04 #@! TD*
G04 #@! TA.AperFunction,ComponentPad*
%ADD20R,1.700000X1.200000*%
G04 #@! TD*
G04 #@! TA.AperFunction,ComponentPad*
%ADD21O,1.700000X1.200000*%
G04 #@! TD*
G04 #@! TA.AperFunction,ComponentPad*
%ADD22O,2.500000X1.800000*%
G04 #@! TD*
G04 #@! TA.AperFunction,ComponentPad*
%ADD23R,2.500000X1.800000*%
G04 #@! TD*
G04 #@! TA.AperFunction,ViaPad*
%ADD24C,0.800000*%
G04 #@! TD*
G04 #@! TA.AperFunction,Conductor*
%ADD25C,0.350000*%
G04 #@! TD*
G04 #@! TA.AperFunction,Conductor*
%ADD26C,1.000000*%
G04 #@! TD*
G04 #@! TA.AperFunction,Conductor*
%ADD27C,0.254000*%
G04 #@! TD*
G04 APERTURE END LIST*
D10*
X25200000Y31400000D03*
D11*
X25200000Y32650000D03*
D10*
X21000000Y31400000D03*
D11*
X21000000Y32650000D03*
D12*
X12900000Y15750000D03*
D13*
X4200000Y8050000D03*
X4200000Y9320000D03*
X4200000Y10590000D03*
X4200000Y11860000D03*
X4200000Y13130000D03*
X4200000Y14400000D03*
X4200000Y15670000D03*
X4200000Y16940000D03*
X4200000Y18210000D03*
X4200000Y19480000D03*
X4200000Y20750000D03*
X4200000Y22020000D03*
X4200000Y23290000D03*
X4200000Y24560000D03*
D14*
X7485000Y26050000D03*
X8755000Y26050000D03*
X10025000Y26050000D03*
X11295000Y26050000D03*
X12565000Y26050000D03*
X13835000Y26050000D03*
X15105000Y26050000D03*
X16375000Y26050000D03*
X17645000Y26050000D03*
X18915000Y26050000D03*
D13*
X22200000Y24560000D03*
X22200000Y23290000D03*
X22200000Y22020000D03*
X22200000Y20750000D03*
X22200000Y19480000D03*
X22200000Y18210000D03*
X22200000Y16940000D03*
X22200000Y15670000D03*
X22200000Y14400000D03*
X22200000Y13130000D03*
X22200000Y11860000D03*
X22200000Y10590000D03*
X22200000Y9320000D03*
X22200000Y8050000D03*
D15*
X25500000Y8800000D03*
D16*
X25500000Y10800000D03*
X25500000Y12800000D03*
X25500000Y14800000D03*
X25500000Y16800000D03*
X25500000Y18800000D03*
D17*
X4100000Y32900000D03*
D18*
X4100000Y30360000D03*
X4100000Y27820000D03*
D19*
X6500000Y32400000D03*
X6500000Y30800000D03*
D20*
X9200000Y32200000D03*
D21*
X9200000Y30200000D03*
D22*
X14900000Y32400000D03*
D23*
X14900000Y29900000D03*
D24*
X14700000Y17000000D03*
X14700000Y14700000D03*
X11200000Y14700000D03*
X11200000Y17000000D03*
X6100000Y8050000D03*
X24100000Y7900000D03*
X2450000Y7450000D03*
X2400000Y32300000D03*
X2500000Y25700000D03*
X26400000Y26700000D03*
X26400000Y29900000D03*
X26400000Y33700000D03*
X22700000Y33800000D03*
X18000000Y33800000D03*
X11800000Y33900000D03*
X6600000Y33900000D03*
X24300000Y15800000D03*
X24300000Y17900000D03*
X12000000Y28000000D03*
X14500000Y28000000D03*
X6100000Y26100000D03*
X7500000Y28000000D03*
X20500000Y28300000D03*
X18600000Y31200000D03*
X11800000Y32200000D03*
X12700000Y29900000D03*
X10950000Y30250000D03*
X6100000Y9350000D03*
X2500000Y17550000D03*
X2500000Y20100000D03*
X17000000Y27900000D03*
X24100000Y20700000D03*
X25500000Y21200000D03*
X24300000Y24600000D03*
X25700000Y24600000D03*
X22200000Y25600000D03*
X2500000Y11200000D03*
X24200000Y13800000D03*
X24200000Y11800000D03*
D25*
X4200000Y8050000D02*
X5900000Y8050000D01*
X5900000Y8050000D02*
X6100000Y8050000D01*
X5300000Y32900000D02*
X5800000Y32400000D01*
X4100000Y32900000D02*
X5300000Y32900000D01*
X5800000Y32400000D02*
X6500000Y32400000D01*
X6500000Y32400000D02*
X7600000Y32400000D01*
X7800000Y32200000D02*
X9200000Y32200000D01*
X7600000Y32400000D02*
X7800000Y32200000D01*
X9200000Y32200000D02*
X11800000Y32200000D01*
X12000000Y32400000D02*
X14900000Y32400000D01*
X11800000Y32200000D02*
X12000000Y32400000D01*
X11800000Y32200000D02*
X11800000Y32200000D01*
X5302081Y30360000D02*
X5742081Y30800000D01*
X4100000Y30360000D02*
X5302081Y30360000D01*
X5742081Y30800000D02*
X6500000Y30800000D01*
X7350000Y30800000D02*
X6500000Y30800000D01*
X9200000Y30200000D02*
X7950000Y30200000D01*
X7950000Y30200000D02*
X7350000Y30800000D01*
X10400000Y30200000D02*
X10450000Y30250000D01*
X9200000Y30200000D02*
X10400000Y30200000D01*
X10450000Y30250000D02*
X10950000Y30250000D01*
D26*
X12250000Y29900000D02*
X12700000Y29900000D01*
D25*
X11900000Y30250000D02*
X12250000Y29900000D01*
D26*
X12700000Y29900000D02*
X14900000Y29900000D01*
D25*
X10950000Y30250000D02*
X11900000Y30250000D01*
X4200000Y9320000D02*
X6070000Y9320000D01*
X6070000Y9320000D02*
X6100000Y9350000D01*
X2500000Y17150000D02*
X2500000Y17550000D01*
X4200000Y16940000D02*
X2710000Y16940000D01*
X2710000Y16940000D02*
X2500000Y17150000D01*
X2500000Y19750000D02*
X2500000Y20100000D01*
X4200000Y19480000D02*
X2770000Y19480000D01*
X2770000Y19480000D02*
X2500000Y19750000D01*
X17000000Y27900000D02*
X17250000Y27900000D01*
X17645000Y27505000D02*
X17645000Y26050000D01*
X17250000Y27900000D02*
X17645000Y27505000D01*
X22200000Y20750000D02*
X23850000Y20750000D01*
X23850000Y20750000D02*
X23900000Y20700000D01*
X23900000Y20700000D02*
X24100000Y20700000D01*
X22200000Y22020000D02*
X24680000Y22020000D01*
X24680000Y22020000D02*
X25500000Y21200000D01*
X22200000Y23290000D02*
X23890000Y23290000D01*
X23890000Y23290000D02*
X24300000Y23700000D01*
X24300000Y23700000D02*
X24300000Y24600000D01*
X18915000Y26050000D02*
X20750000Y26050000D01*
X20750000Y26050000D02*
X21100000Y26400000D01*
X23900000Y26400000D02*
X25700000Y24600000D01*
X21100000Y26400000D02*
X23900000Y26400000D01*
X22200000Y24560000D02*
X22200000Y25600000D01*
X4200000Y10590000D02*
X3110000Y10590000D01*
X3110000Y10590000D02*
X2500000Y11200000D01*
X24200000Y13380000D02*
X24200000Y13800000D01*
X22200000Y13130000D02*
X23950000Y13130000D01*
X23950000Y13130000D02*
X24200000Y13380000D01*
X23800000Y11860000D02*
X23860000Y11800000D01*
X22200000Y11860000D02*
X23800000Y11860000D01*
X23860000Y11800000D02*
X24200000Y11800000D01*
D27*
G36*
X2130058Y10507887D02*
G01*
X2272191Y10449013D01*
X2423078Y10419000D01*
X2494698Y10419000D01*
X2622140Y10291558D01*
X2628542Y10270452D01*
X2705706Y10126088D01*
X2809552Y9999552D01*
X2863838Y9955000D01*
X2809552Y9910448D01*
X2705706Y9783912D01*
X2628542Y9639548D01*
X2581025Y9482904D01*
X2564980Y9320000D01*
X2581025Y9157096D01*
X2628542Y9000452D01*
X2705706Y8856088D01*
X2809552Y8729552D01*
X2865329Y8683777D01*
X2778454Y8603665D01*
X2682382Y8471769D01*
X2613888Y8323665D01*
X2588110Y8227189D01*
X2665817Y8098000D01*
X4152000Y8098000D01*
X4152000Y8118000D01*
X4248000Y8118000D01*
X4248000Y8098000D01*
X4268000Y8098000D01*
X4268000Y8002000D01*
X4248000Y8002000D01*
X4248000Y7219000D01*
X5048000Y7219000D01*
X5209198Y7244332D01*
X5362356Y7300625D01*
X5501589Y7385716D01*
X5621546Y7496335D01*
X5623000Y7498331D01*
X5623000Y7127000D01*
X2508328Y7127000D01*
X2403743Y7140769D01*
X2314045Y7177923D01*
X2237024Y7237024D01*
X2177923Y7314045D01*
X2140769Y7403743D01*
X2127000Y7508328D01*
X2127000Y7872811D01*
X2588110Y7872811D01*
X2613888Y7776335D01*
X2682382Y7628231D01*
X2778454Y7496335D01*
X2898411Y7385716D01*
X3037644Y7300625D01*
X3190802Y7244332D01*
X3352000Y7219000D01*
X4152000Y7219000D01*
X4152000Y8002000D01*
X2665817Y8002000D01*
X2588110Y7872811D01*
X2127000Y7872811D01*
X2127000Y10509930D01*
X2130058Y10507887D01*
G37*
X2130058Y10507887D02*
X2272191Y10449013D01*
X2423078Y10419000D01*
X2494698Y10419000D01*
X2622140Y10291558D01*
X2628542Y10270452D01*
X2705706Y10126088D01*
X2809552Y9999552D01*
X2863838Y9955000D01*
X2809552Y9910448D01*
X2705706Y9783912D01*
X2628542Y9639548D01*
X2581025Y9482904D01*
X2564980Y9320000D01*
X2581025Y9157096D01*
X2628542Y9000452D01*
X2705706Y8856088D01*
X2809552Y8729552D01*
X2865329Y8683777D01*
X2778454Y8603665D01*
X2682382Y8471769D01*
X2613888Y8323665D01*
X2588110Y8227189D01*
X2665817Y8098000D01*
X4152000Y8098000D01*
X4152000Y8118000D01*
X4248000Y8118000D01*
X4248000Y8098000D01*
X4268000Y8098000D01*
X4268000Y8002000D01*
X4248000Y8002000D01*
X4248000Y7219000D01*
X5048000Y7219000D01*
X5209198Y7244332D01*
X5362356Y7300625D01*
X5501589Y7385716D01*
X5621546Y7496335D01*
X5623000Y7498331D01*
X5623000Y7127000D01*
X2508328Y7127000D01*
X2403743Y7140769D01*
X2314045Y7177923D01*
X2237024Y7237024D01*
X2177923Y7314045D01*
X2140769Y7403743D01*
X2127000Y7508328D01*
X2127000Y7872811D01*
X2588110Y7872811D01*
X2613888Y7776335D01*
X2682382Y7628231D01*
X2778454Y7496335D01*
X2898411Y7385716D01*
X3037644Y7300625D01*
X3190802Y7244332D01*
X3352000Y7219000D01*
X4152000Y7219000D01*
X4152000Y8002000D01*
X2665817Y8002000D01*
X2588110Y7872811D01*
X2127000Y7872811D01*
X2127000Y10509930D01*
X2130058Y10507887D01*
G36*
X26596257Y34359231D02*
G01*
X26685955Y34322077D01*
X26762976Y34262976D01*
X26822077Y34185955D01*
X26859231Y34096257D01*
X26873000Y33991672D01*
X26873000Y7508328D01*
X26859231Y7403743D01*
X26822077Y7314045D01*
X26762976Y7237024D01*
X26685955Y7177923D01*
X26596257Y7140769D01*
X26491672Y7127000D01*
X20877000Y7127000D01*
X20877000Y7405460D01*
X20898411Y7385716D01*
X21037644Y7300625D01*
X21190802Y7244332D01*
X21352000Y7219000D01*
X22152000Y7219000D01*
X22152000Y8002000D01*
X22248000Y8002000D01*
X22248000Y7219000D01*
X23048000Y7219000D01*
X23209198Y7244332D01*
X23362356Y7300625D01*
X23501589Y7385716D01*
X23621546Y7496335D01*
X23717618Y7628231D01*
X23786112Y7776335D01*
X23811890Y7872811D01*
X23734183Y8002000D01*
X22248000Y8002000D01*
X22152000Y8002000D01*
X22132000Y8002000D01*
X22132000Y8098000D01*
X22152000Y8098000D01*
X22152000Y8118000D01*
X22248000Y8118000D01*
X22248000Y8098000D01*
X23734183Y8098000D01*
X23750423Y8125000D01*
X24442157Y8125000D01*
X24449513Y8050311D01*
X24471299Y7978492D01*
X24506678Y7912304D01*
X24554289Y7854289D01*
X24612304Y7806678D01*
X24678492Y7771299D01*
X24750311Y7749513D01*
X24825000Y7742157D01*
X25356750Y7744000D01*
X25452000Y7839250D01*
X25452000Y8752000D01*
X25548000Y8752000D01*
X25548000Y7839250D01*
X25643250Y7744000D01*
X26175000Y7742157D01*
X26249689Y7749513D01*
X26321508Y7771299D01*
X26387696Y7806678D01*
X26445711Y7854289D01*
X26493322Y7912304D01*
X26528701Y7978492D01*
X26550487Y8050311D01*
X26557843Y8125000D01*
X26556000Y8656750D01*
X26460750Y8752000D01*
X25548000Y8752000D01*
X25452000Y8752000D01*
X24539250Y8752000D01*
X24444000Y8656750D01*
X24442157Y8125000D01*
X23750423Y8125000D01*
X23811890Y8227189D01*
X23786112Y8323665D01*
X23717618Y8471769D01*
X23621546Y8603665D01*
X23534671Y8683777D01*
X23590448Y8729552D01*
X23694294Y8856088D01*
X23771458Y9000452D01*
X23818975Y9157096D01*
X23835020Y9320000D01*
X23818975Y9482904D01*
X23771458Y9639548D01*
X23694294Y9783912D01*
X23590448Y9910448D01*
X23536162Y9955000D01*
X23590448Y9999552D01*
X23694294Y10126088D01*
X23771458Y10270452D01*
X23818975Y10427096D01*
X23835020Y10590000D01*
X23818975Y10752904D01*
X23771458Y10909548D01*
X23694294Y11053912D01*
X23590448Y11180448D01*
X23536162Y11225000D01*
X23590448Y11269552D01*
X23606449Y11289050D01*
X23702141Y11193358D01*
X23830058Y11107887D01*
X23972191Y11049013D01*
X24123078Y11019000D01*
X24276922Y11019000D01*
X24427809Y11049013D01*
X24476887Y11069342D01*
X24444000Y10904007D01*
X24444000Y10695993D01*
X24484581Y10491976D01*
X24564185Y10299796D01*
X24679751Y10126839D01*
X24826839Y9979751D01*
X24999796Y9864185D01*
X25016711Y9857179D01*
X24825000Y9857843D01*
X24750311Y9850487D01*
X24678492Y9828701D01*
X24612304Y9793322D01*
X24554289Y9745711D01*
X24506678Y9687696D01*
X24471299Y9621508D01*
X24449513Y9549689D01*
X24442157Y9475000D01*
X24444000Y8943250D01*
X24539250Y8848000D01*
X25452000Y8848000D01*
X25452000Y8868000D01*
X25548000Y8868000D01*
X25548000Y8848000D01*
X26460750Y8848000D01*
X26556000Y8943250D01*
X26557843Y9475000D01*
X26550487Y9549689D01*
X26528701Y9621508D01*
X26493322Y9687696D01*
X26445711Y9745711D01*
X26387696Y9793322D01*
X26321508Y9828701D01*
X26249689Y9850487D01*
X26175000Y9857843D01*
X25983289Y9857179D01*
X26000204Y9864185D01*
X26173161Y9979751D01*
X26320249Y10126839D01*
X26435815Y10299796D01*
X26515419Y10491976D01*
X26556000Y10695993D01*
X26556000Y10904007D01*
X26515419Y11108024D01*
X26435815Y11300204D01*
X26320249Y11473161D01*
X26173161Y11620249D01*
X26000204Y11735815D01*
X25845249Y11800000D01*
X26000204Y11864185D01*
X26173161Y11979751D01*
X26320249Y12126839D01*
X26435815Y12299796D01*
X26515419Y12491976D01*
X26556000Y12695993D01*
X26556000Y12904007D01*
X26515419Y13108024D01*
X26435815Y13300204D01*
X26320249Y13473161D01*
X26173161Y13620249D01*
X26000204Y13735815D01*
X25845249Y13800000D01*
X26000204Y13864185D01*
X26173161Y13979751D01*
X26320249Y14126839D01*
X26435815Y14299796D01*
X26515419Y14491976D01*
X26556000Y14695993D01*
X26556000Y14904007D01*
X26515419Y15108024D01*
X26435815Y15300204D01*
X26320249Y15473161D01*
X26173161Y15620249D01*
X26000204Y15735815D01*
X25845249Y15800000D01*
X26000204Y15864185D01*
X26173161Y15979751D01*
X26320249Y16126839D01*
X26435815Y16299796D01*
X26515419Y16491976D01*
X26556000Y16695993D01*
X26556000Y16904007D01*
X26515419Y17108024D01*
X26435815Y17300204D01*
X26320249Y17473161D01*
X26173161Y17620249D01*
X26000204Y17735815D01*
X25845249Y17800000D01*
X26000204Y17864185D01*
X26173161Y17979751D01*
X26320249Y18126839D01*
X26435815Y18299796D01*
X26515419Y18491976D01*
X26556000Y18695993D01*
X26556000Y18904007D01*
X26515419Y19108024D01*
X26435815Y19300204D01*
X26320249Y19473161D01*
X26173161Y19620249D01*
X26000204Y19735815D01*
X25808024Y19815419D01*
X25604007Y19856000D01*
X25395993Y19856000D01*
X25191976Y19815419D01*
X24999796Y19735815D01*
X24826839Y19620249D01*
X24679751Y19473161D01*
X24564185Y19300204D01*
X24484581Y19108024D01*
X24444000Y18904007D01*
X24444000Y18695993D01*
X24484581Y18491976D01*
X24564185Y18299796D01*
X24679751Y18126839D01*
X24826839Y17979751D01*
X24999796Y17864185D01*
X25154751Y17800000D01*
X24999796Y17735815D01*
X24826839Y17620249D01*
X24679751Y17473161D01*
X24564185Y17300204D01*
X24484581Y17108024D01*
X24444000Y16904007D01*
X24444000Y16695993D01*
X24484581Y16491976D01*
X24564185Y16299796D01*
X24679751Y16126839D01*
X24826839Y15979751D01*
X24999796Y15864185D01*
X25154751Y15800000D01*
X24999796Y15735815D01*
X24826839Y15620249D01*
X24679751Y15473161D01*
X24564185Y15300204D01*
X24484581Y15108024D01*
X24444000Y14904007D01*
X24444000Y14695993D01*
X24476887Y14530658D01*
X24427809Y14550987D01*
X24276922Y14581000D01*
X24123078Y14581000D01*
X23972191Y14550987D01*
X23830058Y14492113D01*
X23826201Y14489536D01*
X23818975Y14562904D01*
X23771458Y14719548D01*
X23694294Y14863912D01*
X23590448Y14990448D01*
X23536162Y15035000D01*
X23590448Y15079552D01*
X23694294Y15206088D01*
X23771458Y15350452D01*
X23818975Y15507096D01*
X23835020Y15670000D01*
X23818975Y15832904D01*
X23771458Y15989548D01*
X23694294Y16133912D01*
X23590448Y16260448D01*
X23536162Y16305000D01*
X23590448Y16349552D01*
X23694294Y16476088D01*
X23771458Y16620452D01*
X23818975Y16777096D01*
X23835020Y16940000D01*
X23818975Y17102904D01*
X23771458Y17259548D01*
X23694294Y17403912D01*
X23590448Y17530448D01*
X23536162Y17575000D01*
X23590448Y17619552D01*
X23694294Y17746088D01*
X23771458Y17890452D01*
X23818975Y18047096D01*
X23835020Y18210000D01*
X23818975Y18372904D01*
X23771458Y18529548D01*
X23694294Y18673912D01*
X23590448Y18800448D01*
X23536162Y18845000D01*
X23590448Y18889552D01*
X23694294Y19016088D01*
X23771458Y19160452D01*
X23818975Y19317096D01*
X23835020Y19480000D01*
X23818975Y19642904D01*
X23771458Y19799548D01*
X23694294Y19943912D01*
X23590448Y20070448D01*
X23536162Y20115000D01*
X23560514Y20134985D01*
X23602141Y20093358D01*
X23730058Y20007887D01*
X23872191Y19949013D01*
X24023078Y19919000D01*
X24176922Y19919000D01*
X24327809Y19949013D01*
X24469942Y20007887D01*
X24597859Y20093358D01*
X24706642Y20202141D01*
X24792113Y20330058D01*
X24850987Y20472191D01*
X24881000Y20623078D01*
X24881000Y20720636D01*
X24893358Y20702141D01*
X25002141Y20593358D01*
X25130058Y20507887D01*
X25272191Y20449013D01*
X25423078Y20419000D01*
X25576922Y20419000D01*
X25727809Y20449013D01*
X25869942Y20507887D01*
X25997859Y20593358D01*
X26106642Y20702141D01*
X26192113Y20830058D01*
X26250987Y20972191D01*
X26281000Y21123078D01*
X26281000Y21276922D01*
X26250987Y21427809D01*
X26192113Y21569942D01*
X26106642Y21697859D01*
X25997859Y21806642D01*
X25869942Y21892113D01*
X25727809Y21950987D01*
X25576922Y21981000D01*
X25505302Y21981000D01*
X25092469Y22393832D01*
X25075053Y22415053D01*
X24990392Y22484534D01*
X24893801Y22536162D01*
X24788995Y22567955D01*
X24707312Y22576000D01*
X24707304Y22576000D01*
X24680000Y22578689D01*
X24652696Y22576000D01*
X23618719Y22576000D01*
X23590448Y22610448D01*
X23536162Y22655000D01*
X23590448Y22699552D01*
X23618719Y22734000D01*
X23862696Y22734000D01*
X23890000Y22731311D01*
X23917304Y22734000D01*
X23917312Y22734000D01*
X23998995Y22742045D01*
X24103801Y22773838D01*
X24200392Y22825466D01*
X24285053Y22894947D01*
X24302468Y22916167D01*
X24673842Y23287539D01*
X24695053Y23304947D01*
X24712460Y23326157D01*
X24712464Y23326161D01*
X24764534Y23389608D01*
X24816162Y23486198D01*
X24847955Y23591005D01*
X24848879Y23600391D01*
X24856000Y23672688D01*
X24856000Y23672695D01*
X24858689Y23700000D01*
X24856000Y23727305D01*
X24856000Y24051499D01*
X24906642Y24102141D01*
X24992113Y24230058D01*
X25000000Y24249099D01*
X25007887Y24230058D01*
X25093358Y24102141D01*
X25202141Y23993358D01*
X25330058Y23907887D01*
X25472191Y23849013D01*
X25623078Y23819000D01*
X25776922Y23819000D01*
X25927809Y23849013D01*
X26069942Y23907887D01*
X26197859Y23993358D01*
X26306642Y24102141D01*
X26392113Y24230058D01*
X26450987Y24372191D01*
X26481000Y24523078D01*
X26481000Y24676922D01*
X26450987Y24827809D01*
X26392113Y24969942D01*
X26306642Y25097859D01*
X26197859Y25206642D01*
X26069942Y25292113D01*
X25927809Y25350987D01*
X25776922Y25381000D01*
X25705303Y25381000D01*
X24312469Y26773832D01*
X24295053Y26795053D01*
X24210392Y26864534D01*
X24113801Y26916162D01*
X24008995Y26947955D01*
X23927312Y26956000D01*
X23927304Y26956000D01*
X23900000Y26958689D01*
X23872696Y26956000D01*
X21127305Y26956000D01*
X21100000Y26958689D01*
X21072695Y26956000D01*
X21072688Y26956000D01*
X20991005Y26947955D01*
X20886199Y26916162D01*
X20789608Y26864534D01*
X20704947Y26795053D01*
X20687535Y26773837D01*
X20519699Y26606000D01*
X19746000Y26606000D01*
X19746000Y26890815D01*
X19733975Y27012904D01*
X19686458Y27169548D01*
X19609294Y27313912D01*
X19505448Y27440448D01*
X19378912Y27544294D01*
X19234548Y27621458D01*
X19077904Y27668975D01*
X18915000Y27685020D01*
X18752097Y27668975D01*
X18595453Y27621458D01*
X18451089Y27544294D01*
X18324553Y27440448D01*
X18280001Y27386161D01*
X18235448Y27440448D01*
X18201000Y27468719D01*
X18201000Y27477696D01*
X18203689Y27505001D01*
X18201000Y27532306D01*
X18201000Y27532312D01*
X18192955Y27613995D01*
X18161162Y27718801D01*
X18109534Y27815392D01*
X18076192Y27856019D01*
X18057463Y27878840D01*
X18057460Y27878843D01*
X18040053Y27900053D01*
X18018842Y27917461D01*
X17710324Y28225978D01*
X17692113Y28269942D01*
X17606642Y28397859D01*
X17497859Y28506642D01*
X17369942Y28592113D01*
X17227809Y28650987D01*
X17076922Y28681000D01*
X16923078Y28681000D01*
X16772191Y28650987D01*
X16630058Y28592113D01*
X16502141Y28506642D01*
X16393358Y28397859D01*
X16307887Y28269942D01*
X16249013Y28127809D01*
X16219000Y27976922D01*
X16219000Y27823078D01*
X16248931Y27672603D01*
X16212097Y27668975D01*
X16055453Y27621458D01*
X15911089Y27544294D01*
X15784553Y27440448D01*
X15740001Y27386161D01*
X15695448Y27440448D01*
X15568912Y27544294D01*
X15424548Y27621458D01*
X15267904Y27668975D01*
X15105000Y27685020D01*
X14942097Y27668975D01*
X14785453Y27621458D01*
X14641089Y27544294D01*
X14514553Y27440448D01*
X14470001Y27386161D01*
X14425448Y27440448D01*
X14298912Y27544294D01*
X14154548Y27621458D01*
X13997904Y27668975D01*
X13835000Y27685020D01*
X13672097Y27668975D01*
X13515453Y27621458D01*
X13371089Y27544294D01*
X13244553Y27440448D01*
X13200001Y27386161D01*
X13155448Y27440448D01*
X13028912Y27544294D01*
X12884548Y27621458D01*
X12727904Y27668975D01*
X12565000Y27685020D01*
X12402097Y27668975D01*
X12245453Y27621458D01*
X12101089Y27544294D01*
X11974553Y27440448D01*
X11930001Y27386161D01*
X11885448Y27440448D01*
X11758912Y27544294D01*
X11614548Y27621458D01*
X11457904Y27668975D01*
X11295000Y27685020D01*
X11132097Y27668975D01*
X10975453Y27621458D01*
X10831089Y27544294D01*
X10704553Y27440448D01*
X10660001Y27386161D01*
X10615448Y27440448D01*
X10488912Y27544294D01*
X10344548Y27621458D01*
X10187904Y27668975D01*
X10025000Y27685020D01*
X9862097Y27668975D01*
X9705453Y27621458D01*
X9561089Y27544294D01*
X9434553Y27440448D01*
X9390001Y27386161D01*
X9345448Y27440448D01*
X9218912Y27544294D01*
X9074548Y27621458D01*
X8917904Y27668975D01*
X8755000Y27685020D01*
X8592097Y27668975D01*
X8435453Y27621458D01*
X8291089Y27544294D01*
X8164553Y27440448D01*
X8118778Y27384671D01*
X8038665Y27471546D01*
X7906769Y27567618D01*
X7758665Y27636112D01*
X7662189Y27661890D01*
X7533000Y27584183D01*
X7533000Y26098000D01*
X7553000Y26098000D01*
X7553000Y26002000D01*
X7533000Y26002000D01*
X7533000Y25982000D01*
X7437000Y25982000D01*
X7437000Y26002000D01*
X6654000Y26002000D01*
X6654000Y25202000D01*
X6679332Y25040802D01*
X6735625Y24887644D01*
X6820716Y24748411D01*
X6931335Y24628454D01*
X6933331Y24627000D01*
X5828421Y24627000D01*
X5818975Y24722904D01*
X5771458Y24879548D01*
X5694294Y25023912D01*
X5590448Y25150448D01*
X5463912Y25254294D01*
X5319548Y25331458D01*
X5162904Y25378975D01*
X5040815Y25391000D01*
X3359185Y25391000D01*
X3237096Y25378975D01*
X3080452Y25331458D01*
X2936088Y25254294D01*
X2809552Y25150448D01*
X2705706Y25023912D01*
X2628542Y24879548D01*
X2581025Y24722904D01*
X2564980Y24560000D01*
X2581025Y24397096D01*
X2628542Y24240452D01*
X2705706Y24096088D01*
X2809552Y23969552D01*
X2863838Y23925000D01*
X2809552Y23880448D01*
X2705706Y23753912D01*
X2628542Y23609548D01*
X2581025Y23452904D01*
X2564980Y23290000D01*
X2581025Y23127096D01*
X2628542Y22970452D01*
X2705706Y22826088D01*
X2809552Y22699552D01*
X2863838Y22655000D01*
X2809552Y22610448D01*
X2705706Y22483912D01*
X2628542Y22339548D01*
X2581025Y22182904D01*
X2564980Y22020000D01*
X2581025Y21857096D01*
X2628542Y21700452D01*
X2705706Y21556088D01*
X2809552Y21429552D01*
X2863838Y21385000D01*
X2809552Y21340448D01*
X2705706Y21213912D01*
X2628542Y21069548D01*
X2581025Y20912904D01*
X2577864Y20880813D01*
X2576922Y20881000D01*
X2423078Y20881000D01*
X2272191Y20850987D01*
X2130058Y20792113D01*
X2127000Y20790070D01*
X2127000Y28453890D01*
X2222460Y28414056D01*
X2318244Y28388092D01*
X2447312Y28370679D01*
X2496920Y28367260D01*
X2993539Y28365524D01*
X2916307Y28179069D01*
X2869000Y27941243D01*
X2869000Y27698757D01*
X2916307Y27460931D01*
X3009102Y27236903D01*
X3143820Y27035283D01*
X3315283Y26863820D01*
X3516903Y26729102D01*
X3740931Y26636307D01*
X3978757Y26589000D01*
X4221243Y26589000D01*
X4459069Y26636307D01*
X4683097Y26729102D01*
X4884717Y26863820D01*
X4918897Y26898000D01*
X6654000Y26898000D01*
X6654000Y26098000D01*
X7437000Y26098000D01*
X7437000Y27584183D01*
X7307811Y27661890D01*
X7211335Y27636112D01*
X7063231Y27567618D01*
X6931335Y27471546D01*
X6820716Y27351589D01*
X6735625Y27212356D01*
X6679332Y27059198D01*
X6654000Y26898000D01*
X4918897Y26898000D01*
X5056180Y27035283D01*
X5190898Y27236903D01*
X5283693Y27460931D01*
X5331000Y27698757D01*
X5331000Y27941243D01*
X5283693Y28179069D01*
X5209671Y28357775D01*
X15796920Y28320756D01*
X15846771Y28323856D01*
X15976521Y28340515D01*
X16072882Y28366034D01*
X16193870Y28415778D01*
X16280310Y28465416D01*
X16384255Y28544839D01*
X16454865Y28615203D01*
X16534651Y28718870D01*
X16584592Y28805137D01*
X16634758Y28925950D01*
X16660613Y29022218D01*
X16677726Y29151909D01*
X16681000Y29201751D01*
X16681000Y31201745D01*
X16677755Y31251366D01*
X16660793Y31380494D01*
X16635164Y31476367D01*
X16585430Y31596734D01*
X16535909Y31682737D01*
X16456776Y31786177D01*
X16418090Y31825000D01*
X20192157Y31825000D01*
X20192157Y30975000D01*
X20199513Y30900311D01*
X20221299Y30828492D01*
X20256678Y30762304D01*
X20304289Y30704289D01*
X20362304Y30656678D01*
X20428492Y30621299D01*
X20500311Y30599513D01*
X20575000Y30592157D01*
X21425000Y30592157D01*
X21499689Y30599513D01*
X21571508Y30621299D01*
X21637696Y30656678D01*
X21695711Y30704289D01*
X21743322Y30762304D01*
X21778701Y30828492D01*
X21800487Y30900311D01*
X21807843Y30975000D01*
X21807843Y31825000D01*
X24392157Y31825000D01*
X24392157Y30975000D01*
X24399513Y30900311D01*
X24421299Y30828492D01*
X24456678Y30762304D01*
X24504289Y30704289D01*
X24562304Y30656678D01*
X24628492Y30621299D01*
X24700311Y30599513D01*
X24775000Y30592157D01*
X25625000Y30592157D01*
X25699689Y30599513D01*
X25771508Y30621299D01*
X25837696Y30656678D01*
X25895711Y30704289D01*
X25943322Y30762304D01*
X25978701Y30828492D01*
X26000487Y30900311D01*
X26007843Y30975000D01*
X26007843Y31825000D01*
X26000487Y31899689D01*
X25978701Y31971508D01*
X25943322Y32037696D01*
X25895711Y32095711D01*
X25837696Y32143322D01*
X25832627Y32146032D01*
X25914268Y32268216D01*
X25975026Y32414898D01*
X26006000Y32570616D01*
X26006000Y32729384D01*
X25975026Y32885102D01*
X25914268Y33031784D01*
X25826061Y33163795D01*
X25713795Y33276061D01*
X25581784Y33364268D01*
X25435102Y33425026D01*
X25279384Y33456000D01*
X25120616Y33456000D01*
X24964898Y33425026D01*
X24818216Y33364268D01*
X24686205Y33276061D01*
X24573939Y33163795D01*
X24485732Y33031784D01*
X24424974Y32885102D01*
X24394000Y32729384D01*
X24394000Y32570616D01*
X24424974Y32414898D01*
X24485732Y32268216D01*
X24567373Y32146032D01*
X24562304Y32143322D01*
X24504289Y32095711D01*
X24456678Y32037696D01*
X24421299Y31971508D01*
X24399513Y31899689D01*
X24392157Y31825000D01*
X21807843Y31825000D01*
X21800487Y31899689D01*
X21778701Y31971508D01*
X21743322Y32037696D01*
X21695711Y32095711D01*
X21637696Y32143322D01*
X21632627Y32146032D01*
X21714268Y32268216D01*
X21775026Y32414898D01*
X21806000Y32570616D01*
X21806000Y32729384D01*
X21775026Y32885102D01*
X21714268Y33031784D01*
X21626061Y33163795D01*
X21513795Y33276061D01*
X21381784Y33364268D01*
X21235102Y33425026D01*
X21079384Y33456000D01*
X20920616Y33456000D01*
X20764898Y33425026D01*
X20618216Y33364268D01*
X20486205Y33276061D01*
X20373939Y33163795D01*
X20285732Y33031784D01*
X20224974Y32885102D01*
X20194000Y32729384D01*
X20194000Y32570616D01*
X20224974Y32414898D01*
X20285732Y32268216D01*
X20367373Y32146032D01*
X20362304Y32143322D01*
X20304289Y32095711D01*
X20256678Y32037696D01*
X20221299Y31971508D01*
X20199513Y31899689D01*
X20192157Y31825000D01*
X16418090Y31825000D01*
X16398510Y31844648D01*
X16451858Y31954128D01*
X16506831Y32152339D01*
X16434778Y32352000D01*
X14948000Y32352000D01*
X14948000Y32332000D01*
X14852000Y32332000D01*
X14852000Y32352000D01*
X13365222Y32352000D01*
X13293169Y32152339D01*
X13310054Y32091457D01*
X10386069Y32101681D01*
X10335750Y32152000D01*
X9248000Y32152000D01*
X9248000Y32132000D01*
X9152000Y32132000D01*
X9152000Y32152000D01*
X8064250Y32152000D01*
X8022196Y32109946D01*
X7332036Y32112359D01*
X7331000Y32256750D01*
X7235750Y32352000D01*
X6548000Y32352000D01*
X6548000Y32332000D01*
X6452000Y32332000D01*
X6452000Y32352000D01*
X5764250Y32352000D01*
X5669000Y32256750D01*
X5668005Y32118178D01*
X5332662Y32119350D01*
X5331000Y32756750D01*
X5287750Y32800000D01*
X5667157Y32800000D01*
X5669000Y32543250D01*
X5764250Y32448000D01*
X6452000Y32448000D01*
X6452000Y33085750D01*
X6548000Y33085750D01*
X6548000Y32448000D01*
X7235750Y32448000D01*
X7331000Y32543250D01*
X7332843Y32800000D01*
X7967157Y32800000D01*
X7969000Y32343250D01*
X8064250Y32248000D01*
X9152000Y32248000D01*
X9152000Y33085750D01*
X9248000Y33085750D01*
X9248000Y32248000D01*
X10335750Y32248000D01*
X10431000Y32343250D01*
X10432228Y32647661D01*
X13293169Y32647661D01*
X13365222Y32448000D01*
X14852000Y32448000D01*
X14852000Y33681000D01*
X14948000Y33681000D01*
X14948000Y32448000D01*
X16434778Y32448000D01*
X16506831Y32647661D01*
X16451858Y32845872D01*
X16341779Y33071775D01*
X16189744Y33271863D01*
X16001595Y33438445D01*
X15784563Y33565121D01*
X15546988Y33647022D01*
X15298000Y33681000D01*
X14948000Y33681000D01*
X14852000Y33681000D01*
X14502000Y33681000D01*
X14253012Y33647022D01*
X14015437Y33565121D01*
X13798405Y33438445D01*
X13610256Y33271863D01*
X13458221Y33071775D01*
X13348142Y32845872D01*
X13293169Y32647661D01*
X10432228Y32647661D01*
X10432843Y32800000D01*
X10425487Y32874689D01*
X10403701Y32946508D01*
X10368322Y33012696D01*
X10320711Y33070711D01*
X10262696Y33118322D01*
X10196508Y33153701D01*
X10124689Y33175487D01*
X10050000Y33182843D01*
X9343250Y33181000D01*
X9248000Y33085750D01*
X9152000Y33085750D01*
X9056750Y33181000D01*
X8350000Y33182843D01*
X8275311Y33175487D01*
X8203492Y33153701D01*
X8137304Y33118322D01*
X8079289Y33070711D01*
X8031678Y33012696D01*
X7996299Y32946508D01*
X7974513Y32874689D01*
X7967157Y32800000D01*
X7332843Y32800000D01*
X7325487Y32874689D01*
X7303701Y32946508D01*
X7268322Y33012696D01*
X7220711Y33070711D01*
X7162696Y33118322D01*
X7096508Y33153701D01*
X7024689Y33175487D01*
X6950000Y33182843D01*
X6643250Y33181000D01*
X6548000Y33085750D01*
X6452000Y33085750D01*
X6356750Y33181000D01*
X6050000Y33182843D01*
X5975311Y33175487D01*
X5903492Y33153701D01*
X5837304Y33118322D01*
X5779289Y33070711D01*
X5731678Y33012696D01*
X5696299Y32946508D01*
X5674513Y32874689D01*
X5667157Y32800000D01*
X5287750Y32800000D01*
X5235750Y32852000D01*
X4148000Y32852000D01*
X4148000Y32832000D01*
X4052000Y32832000D01*
X4052000Y32852000D01*
X2964250Y32852000D01*
X2869000Y32756750D01*
X2867360Y32127970D01*
X2503080Y32129244D01*
X2453229Y32126144D01*
X2323479Y32109485D01*
X2227118Y32083966D01*
X2127000Y32042803D01*
X2127000Y33750000D01*
X2867157Y33750000D01*
X2869000Y33043250D01*
X2964250Y32948000D01*
X4052000Y32948000D01*
X4052000Y34035750D01*
X4148000Y34035750D01*
X4148000Y32948000D01*
X5235750Y32948000D01*
X5331000Y33043250D01*
X5332843Y33750000D01*
X5325487Y33824689D01*
X5303701Y33896508D01*
X5268322Y33962696D01*
X5220711Y34020711D01*
X5162696Y34068322D01*
X5096508Y34103701D01*
X5024689Y34125487D01*
X4950000Y34132843D01*
X4243250Y34131000D01*
X4148000Y34035750D01*
X4052000Y34035750D01*
X3956750Y34131000D01*
X3250000Y34132843D01*
X3175311Y34125487D01*
X3103492Y34103701D01*
X3037304Y34068322D01*
X2979289Y34020711D01*
X2931678Y33962696D01*
X2896299Y33896508D01*
X2874513Y33824689D01*
X2867157Y33750000D01*
X2127000Y33750000D01*
X2127000Y33991672D01*
X2140769Y34096257D01*
X2177923Y34185955D01*
X2237024Y34262976D01*
X2314045Y34322077D01*
X2403743Y34359231D01*
X2508328Y34373000D01*
X26491672Y34373000D01*
X26596257Y34359231D01*
G37*
X26596257Y34359231D02*
X26685955Y34322077D01*
X26762976Y34262976D01*
X26822077Y34185955D01*
X26859231Y34096257D01*
X26873000Y33991672D01*
X26873000Y7508328D01*
X26859231Y7403743D01*
X26822077Y7314045D01*
X26762976Y7237024D01*
X26685955Y7177923D01*
X26596257Y7140769D01*
X26491672Y7127000D01*
X20877000Y7127000D01*
X20877000Y7405460D01*
X20898411Y7385716D01*
X21037644Y7300625D01*
X21190802Y7244332D01*
X21352000Y7219000D01*
X22152000Y7219000D01*
X22152000Y8002000D01*
X22248000Y8002000D01*
X22248000Y7219000D01*
X23048000Y7219000D01*
X23209198Y7244332D01*
X23362356Y7300625D01*
X23501589Y7385716D01*
X23621546Y7496335D01*
X23717618Y7628231D01*
X23786112Y7776335D01*
X23811890Y7872811D01*
X23734183Y8002000D01*
X22248000Y8002000D01*
X22152000Y8002000D01*
X22132000Y8002000D01*
X22132000Y8098000D01*
X22152000Y8098000D01*
X22152000Y8118000D01*
X22248000Y8118000D01*
X22248000Y8098000D01*
X23734183Y8098000D01*
X23750423Y8125000D01*
X24442157Y8125000D01*
X24449513Y8050311D01*
X24471299Y7978492D01*
X24506678Y7912304D01*
X24554289Y7854289D01*
X24612304Y7806678D01*
X24678492Y7771299D01*
X24750311Y7749513D01*
X24825000Y7742157D01*
X25356750Y7744000D01*
X25452000Y7839250D01*
X25452000Y8752000D01*
X25548000Y8752000D01*
X25548000Y7839250D01*
X25643250Y7744000D01*
X26175000Y7742157D01*
X26249689Y7749513D01*
X26321508Y7771299D01*
X26387696Y7806678D01*
X26445711Y7854289D01*
X26493322Y7912304D01*
X26528701Y7978492D01*
X26550487Y8050311D01*
X26557843Y8125000D01*
X26556000Y8656750D01*
X26460750Y8752000D01*
X25548000Y8752000D01*
X25452000Y8752000D01*
X24539250Y8752000D01*
X24444000Y8656750D01*
X24442157Y8125000D01*
X23750423Y8125000D01*
X23811890Y8227189D01*
X23786112Y8323665D01*
X23717618Y8471769D01*
X23621546Y8603665D01*
X23534671Y8683777D01*
X23590448Y8729552D01*
X23694294Y8856088D01*
X23771458Y9000452D01*
X23818975Y9157096D01*
X23835020Y9320000D01*
X23818975Y9482904D01*
X23771458Y9639548D01*
X23694294Y9783912D01*
X23590448Y9910448D01*
X23536162Y9955000D01*
X23590448Y9999552D01*
X23694294Y10126088D01*
X23771458Y10270452D01*
X23818975Y10427096D01*
X23835020Y10590000D01*
X23818975Y10752904D01*
X23771458Y10909548D01*
X23694294Y11053912D01*
X23590448Y11180448D01*
X23536162Y11225000D01*
X23590448Y11269552D01*
X23606449Y11289050D01*
X23702141Y11193358D01*
X23830058Y11107887D01*
X23972191Y11049013D01*
X24123078Y11019000D01*
X24276922Y11019000D01*
X24427809Y11049013D01*
X24476887Y11069342D01*
X24444000Y10904007D01*
X24444000Y10695993D01*
X24484581Y10491976D01*
X24564185Y10299796D01*
X24679751Y10126839D01*
X24826839Y9979751D01*
X24999796Y9864185D01*
X25016711Y9857179D01*
X24825000Y9857843D01*
X24750311Y9850487D01*
X24678492Y9828701D01*
X24612304Y9793322D01*
X24554289Y9745711D01*
X24506678Y9687696D01*
X24471299Y9621508D01*
X24449513Y9549689D01*
X24442157Y9475000D01*
X24444000Y8943250D01*
X24539250Y8848000D01*
X25452000Y8848000D01*
X25452000Y8868000D01*
X25548000Y8868000D01*
X25548000Y8848000D01*
X26460750Y8848000D01*
X26556000Y8943250D01*
X26557843Y9475000D01*
X26550487Y9549689D01*
X26528701Y9621508D01*
X26493322Y9687696D01*
X26445711Y9745711D01*
X26387696Y9793322D01*
X26321508Y9828701D01*
X26249689Y9850487D01*
X26175000Y9857843D01*
X25983289Y9857179D01*
X26000204Y9864185D01*
X26173161Y9979751D01*
X26320249Y10126839D01*
X26435815Y10299796D01*
X26515419Y10491976D01*
X26556000Y10695993D01*
X26556000Y10904007D01*
X26515419Y11108024D01*
X26435815Y11300204D01*
X26320249Y11473161D01*
X26173161Y11620249D01*
X26000204Y11735815D01*
X25845249Y11800000D01*
X26000204Y11864185D01*
X26173161Y11979751D01*
X26320249Y12126839D01*
X26435815Y12299796D01*
X26515419Y12491976D01*
X26556000Y12695993D01*
X26556000Y12904007D01*
X26515419Y13108024D01*
X26435815Y13300204D01*
X26320249Y13473161D01*
X26173161Y13620249D01*
X26000204Y13735815D01*
X25845249Y13800000D01*
X26000204Y13864185D01*
X26173161Y13979751D01*
X26320249Y14126839D01*
X26435815Y14299796D01*
X26515419Y14491976D01*
X26556000Y14695993D01*
X26556000Y14904007D01*
X26515419Y15108024D01*
X26435815Y15300204D01*
X26320249Y15473161D01*
X26173161Y15620249D01*
X26000204Y15735815D01*
X25845249Y15800000D01*
X26000204Y15864185D01*
X26173161Y15979751D01*
X26320249Y16126839D01*
X26435815Y16299796D01*
X26515419Y16491976D01*
X26556000Y16695993D01*
X26556000Y16904007D01*
X26515419Y17108024D01*
X26435815Y17300204D01*
X26320249Y17473161D01*
X26173161Y17620249D01*
X26000204Y17735815D01*
X25845249Y17800000D01*
X26000204Y17864185D01*
X26173161Y17979751D01*
X26320249Y18126839D01*
X26435815Y18299796D01*
X26515419Y18491976D01*
X26556000Y18695993D01*
X26556000Y18904007D01*
X26515419Y19108024D01*
X26435815Y19300204D01*
X26320249Y19473161D01*
X26173161Y19620249D01*
X26000204Y19735815D01*
X25808024Y19815419D01*
X25604007Y19856000D01*
X25395993Y19856000D01*
X25191976Y19815419D01*
X24999796Y19735815D01*
X24826839Y19620249D01*
X24679751Y19473161D01*
X24564185Y19300204D01*
X24484581Y19108024D01*
X24444000Y18904007D01*
X24444000Y18695993D01*
X24484581Y18491976D01*
X24564185Y18299796D01*
X24679751Y18126839D01*
X24826839Y17979751D01*
X24999796Y17864185D01*
X25154751Y17800000D01*
X24999796Y17735815D01*
X24826839Y17620249D01*
X24679751Y17473161D01*
X24564185Y17300204D01*
X24484581Y17108024D01*
X24444000Y16904007D01*
X24444000Y16695993D01*
X24484581Y16491976D01*
X24564185Y16299796D01*
X24679751Y16126839D01*
X24826839Y15979751D01*
X24999796Y15864185D01*
X25154751Y15800000D01*
X24999796Y15735815D01*
X24826839Y15620249D01*
X24679751Y15473161D01*
X24564185Y15300204D01*
X24484581Y15108024D01*
X24444000Y14904007D01*
X24444000Y14695993D01*
X24476887Y14530658D01*
X24427809Y14550987D01*
X24276922Y14581000D01*
X24123078Y14581000D01*
X23972191Y14550987D01*
X23830058Y14492113D01*
X23826201Y14489536D01*
X23818975Y14562904D01*
X23771458Y14719548D01*
X23694294Y14863912D01*
X23590448Y14990448D01*
X23536162Y15035000D01*
X23590448Y15079552D01*
X23694294Y15206088D01*
X23771458Y15350452D01*
X23818975Y15507096D01*
X23835020Y15670000D01*
X23818975Y15832904D01*
X23771458Y15989548D01*
X23694294Y16133912D01*
X23590448Y16260448D01*
X23536162Y16305000D01*
X23590448Y16349552D01*
X23694294Y16476088D01*
X23771458Y16620452D01*
X23818975Y16777096D01*
X23835020Y16940000D01*
X23818975Y17102904D01*
X23771458Y17259548D01*
X23694294Y17403912D01*
X23590448Y17530448D01*
X23536162Y17575000D01*
X23590448Y17619552D01*
X23694294Y17746088D01*
X23771458Y17890452D01*
X23818975Y18047096D01*
X23835020Y18210000D01*
X23818975Y18372904D01*
X23771458Y18529548D01*
X23694294Y18673912D01*
X23590448Y18800448D01*
X23536162Y18845000D01*
X23590448Y18889552D01*
X23694294Y19016088D01*
X23771458Y19160452D01*
X23818975Y19317096D01*
X23835020Y19480000D01*
X23818975Y19642904D01*
X23771458Y19799548D01*
X23694294Y19943912D01*
X23590448Y20070448D01*
X23536162Y20115000D01*
X23560514Y20134985D01*
X23602141Y20093358D01*
X23730058Y20007887D01*
X23872191Y19949013D01*
X24023078Y19919000D01*
X24176922Y19919000D01*
X24327809Y19949013D01*
X24469942Y20007887D01*
X24597859Y20093358D01*
X24706642Y20202141D01*
X24792113Y20330058D01*
X24850987Y20472191D01*
X24881000Y20623078D01*
X24881000Y20720636D01*
X24893358Y20702141D01*
X25002141Y20593358D01*
X25130058Y20507887D01*
X25272191Y20449013D01*
X25423078Y20419000D01*
X25576922Y20419000D01*
X25727809Y20449013D01*
X25869942Y20507887D01*
X25997859Y20593358D01*
X26106642Y20702141D01*
X26192113Y20830058D01*
X26250987Y20972191D01*
X26281000Y21123078D01*
X26281000Y21276922D01*
X26250987Y21427809D01*
X26192113Y21569942D01*
X26106642Y21697859D01*
X25997859Y21806642D01*
X25869942Y21892113D01*
X25727809Y21950987D01*
X25576922Y21981000D01*
X25505302Y21981000D01*
X25092469Y22393832D01*
X25075053Y22415053D01*
X24990392Y22484534D01*
X24893801Y22536162D01*
X24788995Y22567955D01*
X24707312Y22576000D01*
X24707304Y22576000D01*
X24680000Y22578689D01*
X24652696Y22576000D01*
X23618719Y22576000D01*
X23590448Y22610448D01*
X23536162Y22655000D01*
X23590448Y22699552D01*
X23618719Y22734000D01*
X23862696Y22734000D01*
X23890000Y22731311D01*
X23917304Y22734000D01*
X23917312Y22734000D01*
X23998995Y22742045D01*
X24103801Y22773838D01*
X24200392Y22825466D01*
X24285053Y22894947D01*
X24302468Y22916167D01*
X24673842Y23287539D01*
X24695053Y23304947D01*
X24712460Y23326157D01*
X24712464Y23326161D01*
X24764534Y23389608D01*
X24816162Y23486198D01*
X24847955Y23591005D01*
X24848879Y23600391D01*
X24856000Y23672688D01*
X24856000Y23672695D01*
X24858689Y23700000D01*
X24856000Y23727305D01*
X24856000Y24051499D01*
X24906642Y24102141D01*
X24992113Y24230058D01*
X25000000Y24249099D01*
X25007887Y24230058D01*
X25093358Y24102141D01*
X25202141Y23993358D01*
X25330058Y23907887D01*
X25472191Y23849013D01*
X25623078Y23819000D01*
X25776922Y23819000D01*
X25927809Y23849013D01*
X26069942Y23907887D01*
X26197859Y23993358D01*
X26306642Y24102141D01*
X26392113Y24230058D01*
X26450987Y24372191D01*
X26481000Y24523078D01*
X26481000Y24676922D01*
X26450987Y24827809D01*
X26392113Y24969942D01*
X26306642Y25097859D01*
X26197859Y25206642D01*
X26069942Y25292113D01*
X25927809Y25350987D01*
X25776922Y25381000D01*
X25705303Y25381000D01*
X24312469Y26773832D01*
X24295053Y26795053D01*
X24210392Y26864534D01*
X24113801Y26916162D01*
X24008995Y26947955D01*
X23927312Y26956000D01*
X23927304Y26956000D01*
X23900000Y26958689D01*
X23872696Y26956000D01*
X21127305Y26956000D01*
X21100000Y26958689D01*
X21072695Y26956000D01*
X21072688Y26956000D01*
X20991005Y26947955D01*
X20886199Y26916162D01*
X20789608Y26864534D01*
X20704947Y26795053D01*
X20687535Y26773837D01*
X20519699Y26606000D01*
X19746000Y26606000D01*
X19746000Y26890815D01*
X19733975Y27012904D01*
X19686458Y27169548D01*
X19609294Y27313912D01*
X19505448Y27440448D01*
X19378912Y27544294D01*
X19234548Y27621458D01*
X19077904Y27668975D01*
X18915000Y27685020D01*
X18752097Y27668975D01*
X18595453Y27621458D01*
X18451089Y27544294D01*
X18324553Y27440448D01*
X18280001Y27386161D01*
X18235448Y27440448D01*
X18201000Y27468719D01*
X18201000Y27477696D01*
X18203689Y27505001D01*
X18201000Y27532306D01*
X18201000Y27532312D01*
X18192955Y27613995D01*
X18161162Y27718801D01*
X18109534Y27815392D01*
X18076192Y27856019D01*
X18057463Y27878840D01*
X18057460Y27878843D01*
X18040053Y27900053D01*
X18018842Y27917461D01*
X17710324Y28225978D01*
X17692113Y28269942D01*
X17606642Y28397859D01*
X17497859Y28506642D01*
X17369942Y28592113D01*
X17227809Y28650987D01*
X17076922Y28681000D01*
X16923078Y28681000D01*
X16772191Y28650987D01*
X16630058Y28592113D01*
X16502141Y28506642D01*
X16393358Y28397859D01*
X16307887Y28269942D01*
X16249013Y28127809D01*
X16219000Y27976922D01*
X16219000Y27823078D01*
X16248931Y27672603D01*
X16212097Y27668975D01*
X16055453Y27621458D01*
X15911089Y27544294D01*
X15784553Y27440448D01*
X15740001Y27386161D01*
X15695448Y27440448D01*
X15568912Y27544294D01*
X15424548Y27621458D01*
X15267904Y27668975D01*
X15105000Y27685020D01*
X14942097Y27668975D01*
X14785453Y27621458D01*
X14641089Y27544294D01*
X14514553Y27440448D01*
X14470001Y27386161D01*
X14425448Y27440448D01*
X14298912Y27544294D01*
X14154548Y27621458D01*
X13997904Y27668975D01*
X13835000Y27685020D01*
X13672097Y27668975D01*
X13515453Y27621458D01*
X13371089Y27544294D01*
X13244553Y27440448D01*
X13200001Y27386161D01*
X13155448Y27440448D01*
X13028912Y27544294D01*
X12884548Y27621458D01*
X12727904Y27668975D01*
X12565000Y27685020D01*
X12402097Y27668975D01*
X12245453Y27621458D01*
X12101089Y27544294D01*
X11974553Y27440448D01*
X11930001Y27386161D01*
X11885448Y27440448D01*
X11758912Y27544294D01*
X11614548Y27621458D01*
X11457904Y27668975D01*
X11295000Y27685020D01*
X11132097Y27668975D01*
X10975453Y27621458D01*
X10831089Y27544294D01*
X10704553Y27440448D01*
X10660001Y27386161D01*
X10615448Y27440448D01*
X10488912Y27544294D01*
X10344548Y27621458D01*
X10187904Y27668975D01*
X10025000Y27685020D01*
X9862097Y27668975D01*
X9705453Y27621458D01*
X9561089Y27544294D01*
X9434553Y27440448D01*
X9390001Y27386161D01*
X9345448Y27440448D01*
X9218912Y27544294D01*
X9074548Y27621458D01*
X8917904Y27668975D01*
X8755000Y27685020D01*
X8592097Y27668975D01*
X8435453Y27621458D01*
X8291089Y27544294D01*
X8164553Y27440448D01*
X8118778Y27384671D01*
X8038665Y27471546D01*
X7906769Y27567618D01*
X7758665Y27636112D01*
X7662189Y27661890D01*
X7533000Y27584183D01*
X7533000Y26098000D01*
X7553000Y26098000D01*
X7553000Y26002000D01*
X7533000Y26002000D01*
X7533000Y25982000D01*
X7437000Y25982000D01*
X7437000Y26002000D01*
X6654000Y26002000D01*
X6654000Y25202000D01*
X6679332Y25040802D01*
X6735625Y24887644D01*
X6820716Y24748411D01*
X6931335Y24628454D01*
X6933331Y24627000D01*
X5828421Y24627000D01*
X5818975Y24722904D01*
X5771458Y24879548D01*
X5694294Y25023912D01*
X5590448Y25150448D01*
X5463912Y25254294D01*
X5319548Y25331458D01*
X5162904Y25378975D01*
X5040815Y25391000D01*
X3359185Y25391000D01*
X3237096Y25378975D01*
X3080452Y25331458D01*
X2936088Y25254294D01*
X2809552Y25150448D01*
X2705706Y25023912D01*
X2628542Y24879548D01*
X2581025Y24722904D01*
X2564980Y24560000D01*
X2581025Y24397096D01*
X2628542Y24240452D01*
X2705706Y24096088D01*
X2809552Y23969552D01*
X2863838Y23925000D01*
X2809552Y23880448D01*
X2705706Y23753912D01*
X2628542Y23609548D01*
X2581025Y23452904D01*
X2564980Y23290000D01*
X2581025Y23127096D01*
X2628542Y22970452D01*
X2705706Y22826088D01*
X2809552Y22699552D01*
X2863838Y22655000D01*
X2809552Y22610448D01*
X2705706Y22483912D01*
X2628542Y22339548D01*
X2581025Y22182904D01*
X2564980Y22020000D01*
X2581025Y21857096D01*
X2628542Y21700452D01*
X2705706Y21556088D01*
X2809552Y21429552D01*
X2863838Y21385000D01*
X2809552Y21340448D01*
X2705706Y21213912D01*
X2628542Y21069548D01*
X2581025Y20912904D01*
X2577864Y20880813D01*
X2576922Y20881000D01*
X2423078Y20881000D01*
X2272191Y20850987D01*
X2130058Y20792113D01*
X2127000Y20790070D01*
X2127000Y28453890D01*
X2222460Y28414056D01*
X2318244Y28388092D01*
X2447312Y28370679D01*
X2496920Y28367260D01*
X2993539Y28365524D01*
X2916307Y28179069D01*
X2869000Y27941243D01*
X2869000Y27698757D01*
X2916307Y27460931D01*
X3009102Y27236903D01*
X3143820Y27035283D01*
X3315283Y26863820D01*
X3516903Y26729102D01*
X3740931Y26636307D01*
X3978757Y26589000D01*
X4221243Y26589000D01*
X4459069Y26636307D01*
X4683097Y26729102D01*
X4884717Y26863820D01*
X4918897Y26898000D01*
X6654000Y26898000D01*
X6654000Y26098000D01*
X7437000Y26098000D01*
X7437000Y27584183D01*
X7307811Y27661890D01*
X7211335Y27636112D01*
X7063231Y27567618D01*
X6931335Y27471546D01*
X6820716Y27351589D01*
X6735625Y27212356D01*
X6679332Y27059198D01*
X6654000Y26898000D01*
X4918897Y26898000D01*
X5056180Y27035283D01*
X5190898Y27236903D01*
X5283693Y27460931D01*
X5331000Y27698757D01*
X5331000Y27941243D01*
X5283693Y28179069D01*
X5209671Y28357775D01*
X15796920Y28320756D01*
X15846771Y28323856D01*
X15976521Y28340515D01*
X16072882Y28366034D01*
X16193870Y28415778D01*
X16280310Y28465416D01*
X16384255Y28544839D01*
X16454865Y28615203D01*
X16534651Y28718870D01*
X16584592Y28805137D01*
X16634758Y28925950D01*
X16660613Y29022218D01*
X16677726Y29151909D01*
X16681000Y29201751D01*
X16681000Y31201745D01*
X16677755Y31251366D01*
X16660793Y31380494D01*
X16635164Y31476367D01*
X16585430Y31596734D01*
X16535909Y31682737D01*
X16456776Y31786177D01*
X16418090Y31825000D01*
X20192157Y31825000D01*
X20192157Y30975000D01*
X20199513Y30900311D01*
X20221299Y30828492D01*
X20256678Y30762304D01*
X20304289Y30704289D01*
X20362304Y30656678D01*
X20428492Y30621299D01*
X20500311Y30599513D01*
X20575000Y30592157D01*
X21425000Y30592157D01*
X21499689Y30599513D01*
X21571508Y30621299D01*
X21637696Y30656678D01*
X21695711Y30704289D01*
X21743322Y30762304D01*
X21778701Y30828492D01*
X21800487Y30900311D01*
X21807843Y30975000D01*
X21807843Y31825000D01*
X24392157Y31825000D01*
X24392157Y30975000D01*
X24399513Y30900311D01*
X24421299Y30828492D01*
X24456678Y30762304D01*
X24504289Y30704289D01*
X24562304Y30656678D01*
X24628492Y30621299D01*
X24700311Y30599513D01*
X24775000Y30592157D01*
X25625000Y30592157D01*
X25699689Y30599513D01*
X25771508Y30621299D01*
X25837696Y30656678D01*
X25895711Y30704289D01*
X25943322Y30762304D01*
X25978701Y30828492D01*
X26000487Y30900311D01*
X26007843Y30975000D01*
X26007843Y31825000D01*
X26000487Y31899689D01*
X25978701Y31971508D01*
X25943322Y32037696D01*
X25895711Y32095711D01*
X25837696Y32143322D01*
X25832627Y32146032D01*
X25914268Y32268216D01*
X25975026Y32414898D01*
X26006000Y32570616D01*
X26006000Y32729384D01*
X25975026Y32885102D01*
X25914268Y33031784D01*
X25826061Y33163795D01*
X25713795Y33276061D01*
X25581784Y33364268D01*
X25435102Y33425026D01*
X25279384Y33456000D01*
X25120616Y33456000D01*
X24964898Y33425026D01*
X24818216Y33364268D01*
X24686205Y33276061D01*
X24573939Y33163795D01*
X24485732Y33031784D01*
X24424974Y32885102D01*
X24394000Y32729384D01*
X24394000Y32570616D01*
X24424974Y32414898D01*
X24485732Y32268216D01*
X24567373Y32146032D01*
X24562304Y32143322D01*
X24504289Y32095711D01*
X24456678Y32037696D01*
X24421299Y31971508D01*
X24399513Y31899689D01*
X24392157Y31825000D01*
X21807843Y31825000D01*
X21800487Y31899689D01*
X21778701Y31971508D01*
X21743322Y32037696D01*
X21695711Y32095711D01*
X21637696Y32143322D01*
X21632627Y32146032D01*
X21714268Y32268216D01*
X21775026Y32414898D01*
X21806000Y32570616D01*
X21806000Y32729384D01*
X21775026Y32885102D01*
X21714268Y33031784D01*
X21626061Y33163795D01*
X21513795Y33276061D01*
X21381784Y33364268D01*
X21235102Y33425026D01*
X21079384Y33456000D01*
X20920616Y33456000D01*
X20764898Y33425026D01*
X20618216Y33364268D01*
X20486205Y33276061D01*
X20373939Y33163795D01*
X20285732Y33031784D01*
X20224974Y32885102D01*
X20194000Y32729384D01*
X20194000Y32570616D01*
X20224974Y32414898D01*
X20285732Y32268216D01*
X20367373Y32146032D01*
X20362304Y32143322D01*
X20304289Y32095711D01*
X20256678Y32037696D01*
X20221299Y31971508D01*
X20199513Y31899689D01*
X20192157Y31825000D01*
X16418090Y31825000D01*
X16398510Y31844648D01*
X16451858Y31954128D01*
X16506831Y32152339D01*
X16434778Y32352000D01*
X14948000Y32352000D01*
X14948000Y32332000D01*
X14852000Y32332000D01*
X14852000Y32352000D01*
X13365222Y32352000D01*
X13293169Y32152339D01*
X13310054Y32091457D01*
X10386069Y32101681D01*
X10335750Y32152000D01*
X9248000Y32152000D01*
X9248000Y32132000D01*
X9152000Y32132000D01*
X9152000Y32152000D01*
X8064250Y32152000D01*
X8022196Y32109946D01*
X7332036Y32112359D01*
X7331000Y32256750D01*
X7235750Y32352000D01*
X6548000Y32352000D01*
X6548000Y32332000D01*
X6452000Y32332000D01*
X6452000Y32352000D01*
X5764250Y32352000D01*
X5669000Y32256750D01*
X5668005Y32118178D01*
X5332662Y32119350D01*
X5331000Y32756750D01*
X5287750Y32800000D01*
X5667157Y32800000D01*
X5669000Y32543250D01*
X5764250Y32448000D01*
X6452000Y32448000D01*
X6452000Y33085750D01*
X6548000Y33085750D01*
X6548000Y32448000D01*
X7235750Y32448000D01*
X7331000Y32543250D01*
X7332843Y32800000D01*
X7967157Y32800000D01*
X7969000Y32343250D01*
X8064250Y32248000D01*
X9152000Y32248000D01*
X9152000Y33085750D01*
X9248000Y33085750D01*
X9248000Y32248000D01*
X10335750Y32248000D01*
X10431000Y32343250D01*
X10432228Y32647661D01*
X13293169Y32647661D01*
X13365222Y32448000D01*
X14852000Y32448000D01*
X14852000Y33681000D01*
X14948000Y33681000D01*
X14948000Y32448000D01*
X16434778Y32448000D01*
X16506831Y32647661D01*
X16451858Y32845872D01*
X16341779Y33071775D01*
X16189744Y33271863D01*
X16001595Y33438445D01*
X15784563Y33565121D01*
X15546988Y33647022D01*
X15298000Y33681000D01*
X14948000Y33681000D01*
X14852000Y33681000D01*
X14502000Y33681000D01*
X14253012Y33647022D01*
X14015437Y33565121D01*
X13798405Y33438445D01*
X13610256Y33271863D01*
X13458221Y33071775D01*
X13348142Y32845872D01*
X13293169Y32647661D01*
X10432228Y32647661D01*
X10432843Y32800000D01*
X10425487Y32874689D01*
X10403701Y32946508D01*
X10368322Y33012696D01*
X10320711Y33070711D01*
X10262696Y33118322D01*
X10196508Y33153701D01*
X10124689Y33175487D01*
X10050000Y33182843D01*
X9343250Y33181000D01*
X9248000Y33085750D01*
X9152000Y33085750D01*
X9056750Y33181000D01*
X8350000Y33182843D01*
X8275311Y33175487D01*
X8203492Y33153701D01*
X8137304Y33118322D01*
X8079289Y33070711D01*
X8031678Y33012696D01*
X7996299Y32946508D01*
X7974513Y32874689D01*
X7967157Y32800000D01*
X7332843Y32800000D01*
X7325487Y32874689D01*
X7303701Y32946508D01*
X7268322Y33012696D01*
X7220711Y33070711D01*
X7162696Y33118322D01*
X7096508Y33153701D01*
X7024689Y33175487D01*
X6950000Y33182843D01*
X6643250Y33181000D01*
X6548000Y33085750D01*
X6452000Y33085750D01*
X6356750Y33181000D01*
X6050000Y33182843D01*
X5975311Y33175487D01*
X5903492Y33153701D01*
X5837304Y33118322D01*
X5779289Y33070711D01*
X5731678Y33012696D01*
X5696299Y32946508D01*
X5674513Y32874689D01*
X5667157Y32800000D01*
X5287750Y32800000D01*
X5235750Y32852000D01*
X4148000Y32852000D01*
X4148000Y32832000D01*
X4052000Y32832000D01*
X4052000Y32852000D01*
X2964250Y32852000D01*
X2869000Y32756750D01*
X2867360Y32127970D01*
X2503080Y32129244D01*
X2453229Y32126144D01*
X2323479Y32109485D01*
X2227118Y32083966D01*
X2127000Y32042803D01*
X2127000Y33750000D01*
X2867157Y33750000D01*
X2869000Y33043250D01*
X2964250Y32948000D01*
X4052000Y32948000D01*
X4052000Y34035750D01*
X4148000Y34035750D01*
X4148000Y32948000D01*
X5235750Y32948000D01*
X5331000Y33043250D01*
X5332843Y33750000D01*
X5325487Y33824689D01*
X5303701Y33896508D01*
X5268322Y33962696D01*
X5220711Y34020711D01*
X5162696Y34068322D01*
X5096508Y34103701D01*
X5024689Y34125487D01*
X4950000Y34132843D01*
X4243250Y34131000D01*
X4148000Y34035750D01*
X4052000Y34035750D01*
X3956750Y34131000D01*
X3250000Y34132843D01*
X3175311Y34125487D01*
X3103492Y34103701D01*
X3037304Y34068322D01*
X2979289Y34020711D01*
X2931678Y33962696D01*
X2896299Y33896508D01*
X2874513Y33824689D01*
X2867157Y33750000D01*
X2127000Y33750000D01*
X2127000Y33991672D01*
X2140769Y34096257D01*
X2177923Y34185955D01*
X2237024Y34262976D01*
X2314045Y34322077D01*
X2403743Y34359231D01*
X2508328Y34373000D01*
X26491672Y34373000D01*
X26596257Y34359231D01*
G36*
X7967157Y31602136D02*
G01*
X7967157Y31600000D01*
X7974513Y31525311D01*
X7996299Y31453492D01*
X8031678Y31387304D01*
X8079289Y31329289D01*
X8137304Y31281678D01*
X8203492Y31246299D01*
X8275311Y31224513D01*
X8350000Y31217157D01*
X10050000Y31217157D01*
X10124689Y31224513D01*
X10196508Y31246299D01*
X10262696Y31281678D01*
X10320711Y31329289D01*
X10368322Y31387304D01*
X10403701Y31453492D01*
X10425487Y31525311D01*
X10432204Y31593516D01*
X11306479Y31590459D01*
X11430058Y31507887D01*
X11572191Y31449013D01*
X11723078Y31419000D01*
X11876922Y31419000D01*
X12027809Y31449013D01*
X12169942Y31507887D01*
X12288383Y31587026D01*
X13563693Y31582567D01*
X13639814Y31489814D01*
X13834871Y31329734D01*
X14057411Y31210784D01*
X14152277Y31182007D01*
X13650000Y31182843D01*
X13575311Y31175487D01*
X13503492Y31153701D01*
X13437304Y31118322D01*
X13379289Y31070711D01*
X13331678Y31012696D01*
X13296299Y30946508D01*
X13274513Y30874689D01*
X13267157Y30800000D01*
X13269000Y30043250D01*
X13364250Y29948000D01*
X14852000Y29948000D01*
X14852000Y29968000D01*
X14948000Y29968000D01*
X14948000Y29948000D01*
X14968000Y29948000D01*
X14968000Y29852000D01*
X14948000Y29852000D01*
X14948000Y29832000D01*
X14852000Y29832000D01*
X14852000Y29852000D01*
X13364250Y29852000D01*
X13269000Y29756750D01*
X13267157Y29000000D01*
X13274513Y28925311D01*
X13296299Y28853492D01*
X13304862Y28837473D01*
X4748209Y28867391D01*
X4683097Y28910898D01*
X4459069Y29003693D01*
X4221243Y29051000D01*
X3978757Y29051000D01*
X3740931Y29003693D01*
X3516903Y28910898D01*
X3458540Y28871901D01*
X2507005Y28875228D01*
X2402696Y28889301D01*
X2313295Y28926607D01*
X2236561Y28985736D01*
X2177701Y29062676D01*
X2140707Y29152208D01*
X2127000Y29256558D01*
X2127000Y30120167D01*
X2892589Y30120167D01*
X2892714Y30119521D01*
X2962827Y29888612D01*
X3076641Y29675818D01*
X3229782Y29489317D01*
X3416365Y29336276D01*
X3629220Y29222576D01*
X3860166Y29152587D01*
X4052000Y29225184D01*
X4052000Y30312000D01*
X4148000Y30312000D01*
X4148000Y29225184D01*
X4339834Y29152587D01*
X4570780Y29222576D01*
X4783635Y29336276D01*
X4970218Y29489317D01*
X5123359Y29675818D01*
X5237173Y29888612D01*
X5270786Y29999313D01*
X7989747Y29999313D01*
X8025307Y29868934D01*
X8107662Y29694897D01*
X8222388Y29540270D01*
X8365076Y29410996D01*
X8530242Y29312043D01*
X8711539Y29247214D01*
X8902000Y29219000D01*
X9152000Y29219000D01*
X9152000Y30152000D01*
X9248000Y30152000D01*
X9248000Y29219000D01*
X9498000Y29219000D01*
X9688461Y29247214D01*
X9869758Y29312043D01*
X10034924Y29410996D01*
X10177612Y29540270D01*
X10292338Y29694897D01*
X10374693Y29868934D01*
X10410253Y29999313D01*
X10334448Y30152000D01*
X9248000Y30152000D01*
X9152000Y30152000D01*
X8065552Y30152000D01*
X7989747Y29999313D01*
X5270786Y29999313D01*
X5307286Y30119521D01*
X5307411Y30120167D01*
X5234735Y30312000D01*
X4148000Y30312000D01*
X4052000Y30312000D01*
X2965265Y30312000D01*
X2892589Y30120167D01*
X2127000Y30120167D01*
X2127000Y30400000D01*
X5667157Y30400000D01*
X5674513Y30325311D01*
X5696299Y30253492D01*
X5731678Y30187304D01*
X5779289Y30129289D01*
X5837304Y30081678D01*
X5903492Y30046299D01*
X5975311Y30024513D01*
X6050000Y30017157D01*
X6356750Y30019000D01*
X6452000Y30114250D01*
X6452000Y30752000D01*
X6548000Y30752000D01*
X6548000Y30114250D01*
X6643250Y30019000D01*
X6950000Y30017157D01*
X7024689Y30024513D01*
X7096508Y30046299D01*
X7162696Y30081678D01*
X7220711Y30129289D01*
X7268322Y30187304D01*
X7303701Y30253492D01*
X7325487Y30325311D01*
X7332843Y30400000D01*
X7332839Y30400687D01*
X7989747Y30400687D01*
X8065552Y30248000D01*
X9152000Y30248000D01*
X9152000Y31181000D01*
X9248000Y31181000D01*
X9248000Y30248000D01*
X10334448Y30248000D01*
X10410253Y30400687D01*
X10374693Y30531066D01*
X10292338Y30705103D01*
X10177612Y30859730D01*
X10034924Y30989004D01*
X9869758Y31087957D01*
X9688461Y31152786D01*
X9498000Y31181000D01*
X9248000Y31181000D01*
X9152000Y31181000D01*
X8902000Y31181000D01*
X8711539Y31152786D01*
X8530242Y31087957D01*
X8365076Y30989004D01*
X8222388Y30859730D01*
X8107662Y30705103D01*
X8025307Y30531066D01*
X7989747Y30400687D01*
X7332839Y30400687D01*
X7331000Y30656750D01*
X7235750Y30752000D01*
X6548000Y30752000D01*
X6452000Y30752000D01*
X5764250Y30752000D01*
X5669000Y30656750D01*
X5667157Y30400000D01*
X2127000Y30400000D01*
X2127000Y30599833D01*
X2892589Y30599833D01*
X2965265Y30408000D01*
X4052000Y30408000D01*
X4052000Y31494816D01*
X4148000Y31494816D01*
X4148000Y30408000D01*
X5234735Y30408000D01*
X5307411Y30599833D01*
X5307286Y30600479D01*
X5237173Y30831388D01*
X5123359Y31044182D01*
X4995413Y31200000D01*
X5667157Y31200000D01*
X5669000Y30943250D01*
X5764250Y30848000D01*
X6452000Y30848000D01*
X6452000Y31485750D01*
X6548000Y31485750D01*
X6548000Y30848000D01*
X7235750Y30848000D01*
X7331000Y30943250D01*
X7332843Y31200000D01*
X7325487Y31274689D01*
X7303701Y31346508D01*
X7268322Y31412696D01*
X7220711Y31470711D01*
X7162696Y31518322D01*
X7096508Y31553701D01*
X7024689Y31575487D01*
X6950000Y31582843D01*
X6643250Y31581000D01*
X6548000Y31485750D01*
X6452000Y31485750D01*
X6356750Y31581000D01*
X6050000Y31582843D01*
X5975311Y31575487D01*
X5903492Y31553701D01*
X5837304Y31518322D01*
X5779289Y31470711D01*
X5731678Y31412696D01*
X5696299Y31346508D01*
X5674513Y31274689D01*
X5667157Y31200000D01*
X4995413Y31200000D01*
X4970218Y31230683D01*
X4783635Y31383724D01*
X4570780Y31497424D01*
X4339834Y31567413D01*
X4148000Y31494816D01*
X4052000Y31494816D01*
X3860166Y31567413D01*
X3629220Y31497424D01*
X3416365Y31383724D01*
X3229782Y31230683D01*
X3076641Y31044182D01*
X2962827Y30831388D01*
X2892714Y30600479D01*
X2892589Y30599833D01*
X2127000Y30599833D01*
X2127000Y31239903D01*
X2140830Y31344715D01*
X2178143Y31434574D01*
X2237485Y31511679D01*
X2262767Y31530996D01*
X2323078Y31519000D01*
X2476922Y31519000D01*
X2627809Y31549013D01*
X2769942Y31607887D01*
X2788434Y31620243D01*
X7967157Y31602136D01*
G37*
X7967157Y31602136D02*
X7967157Y31600000D01*
X7974513Y31525311D01*
X7996299Y31453492D01*
X8031678Y31387304D01*
X8079289Y31329289D01*
X8137304Y31281678D01*
X8203492Y31246299D01*
X8275311Y31224513D01*
X8350000Y31217157D01*
X10050000Y31217157D01*
X10124689Y31224513D01*
X10196508Y31246299D01*
X10262696Y31281678D01*
X10320711Y31329289D01*
X10368322Y31387304D01*
X10403701Y31453492D01*
X10425487Y31525311D01*
X10432204Y31593516D01*
X11306479Y31590459D01*
X11430058Y31507887D01*
X11572191Y31449013D01*
X11723078Y31419000D01*
X11876922Y31419000D01*
X12027809Y31449013D01*
X12169942Y31507887D01*
X12288383Y31587026D01*
X13563693Y31582567D01*
X13639814Y31489814D01*
X13834871Y31329734D01*
X14057411Y31210784D01*
X14152277Y31182007D01*
X13650000Y31182843D01*
X13575311Y31175487D01*
X13503492Y31153701D01*
X13437304Y31118322D01*
X13379289Y31070711D01*
X13331678Y31012696D01*
X13296299Y30946508D01*
X13274513Y30874689D01*
X13267157Y30800000D01*
X13269000Y30043250D01*
X13364250Y29948000D01*
X14852000Y29948000D01*
X14852000Y29968000D01*
X14948000Y29968000D01*
X14948000Y29948000D01*
X14968000Y29948000D01*
X14968000Y29852000D01*
X14948000Y29852000D01*
X14948000Y29832000D01*
X14852000Y29832000D01*
X14852000Y29852000D01*
X13364250Y29852000D01*
X13269000Y29756750D01*
X13267157Y29000000D01*
X13274513Y28925311D01*
X13296299Y28853492D01*
X13304862Y28837473D01*
X4748209Y28867391D01*
X4683097Y28910898D01*
X4459069Y29003693D01*
X4221243Y29051000D01*
X3978757Y29051000D01*
X3740931Y29003693D01*
X3516903Y28910898D01*
X3458540Y28871901D01*
X2507005Y28875228D01*
X2402696Y28889301D01*
X2313295Y28926607D01*
X2236561Y28985736D01*
X2177701Y29062676D01*
X2140707Y29152208D01*
X2127000Y29256558D01*
X2127000Y30120167D01*
X2892589Y30120167D01*
X2892714Y30119521D01*
X2962827Y29888612D01*
X3076641Y29675818D01*
X3229782Y29489317D01*
X3416365Y29336276D01*
X3629220Y29222576D01*
X3860166Y29152587D01*
X4052000Y29225184D01*
X4052000Y30312000D01*
X4148000Y30312000D01*
X4148000Y29225184D01*
X4339834Y29152587D01*
X4570780Y29222576D01*
X4783635Y29336276D01*
X4970218Y29489317D01*
X5123359Y29675818D01*
X5237173Y29888612D01*
X5270786Y29999313D01*
X7989747Y29999313D01*
X8025307Y29868934D01*
X8107662Y29694897D01*
X8222388Y29540270D01*
X8365076Y29410996D01*
X8530242Y29312043D01*
X8711539Y29247214D01*
X8902000Y29219000D01*
X9152000Y29219000D01*
X9152000Y30152000D01*
X9248000Y30152000D01*
X9248000Y29219000D01*
X9498000Y29219000D01*
X9688461Y29247214D01*
X9869758Y29312043D01*
X10034924Y29410996D01*
X10177612Y29540270D01*
X10292338Y29694897D01*
X10374693Y29868934D01*
X10410253Y29999313D01*
X10334448Y30152000D01*
X9248000Y30152000D01*
X9152000Y30152000D01*
X8065552Y30152000D01*
X7989747Y29999313D01*
X5270786Y29999313D01*
X5307286Y30119521D01*
X5307411Y30120167D01*
X5234735Y30312000D01*
X4148000Y30312000D01*
X4052000Y30312000D01*
X2965265Y30312000D01*
X2892589Y30120167D01*
X2127000Y30120167D01*
X2127000Y30400000D01*
X5667157Y30400000D01*
X5674513Y30325311D01*
X5696299Y30253492D01*
X5731678Y30187304D01*
X5779289Y30129289D01*
X5837304Y30081678D01*
X5903492Y30046299D01*
X5975311Y30024513D01*
X6050000Y30017157D01*
X6356750Y30019000D01*
X6452000Y30114250D01*
X6452000Y30752000D01*
X6548000Y30752000D01*
X6548000Y30114250D01*
X6643250Y30019000D01*
X6950000Y30017157D01*
X7024689Y30024513D01*
X7096508Y30046299D01*
X7162696Y30081678D01*
X7220711Y30129289D01*
X7268322Y30187304D01*
X7303701Y30253492D01*
X7325487Y30325311D01*
X7332843Y30400000D01*
X7332839Y30400687D01*
X7989747Y30400687D01*
X8065552Y30248000D01*
X9152000Y30248000D01*
X9152000Y31181000D01*
X9248000Y31181000D01*
X9248000Y30248000D01*
X10334448Y30248000D01*
X10410253Y30400687D01*
X10374693Y30531066D01*
X10292338Y30705103D01*
X10177612Y30859730D01*
X10034924Y30989004D01*
X9869758Y31087957D01*
X9688461Y31152786D01*
X9498000Y31181000D01*
X9248000Y31181000D01*
X9152000Y31181000D01*
X8902000Y31181000D01*
X8711539Y31152786D01*
X8530242Y31087957D01*
X8365076Y30989004D01*
X8222388Y30859730D01*
X8107662Y30705103D01*
X8025307Y30531066D01*
X7989747Y30400687D01*
X7332839Y30400687D01*
X7331000Y30656750D01*
X7235750Y30752000D01*
X6548000Y30752000D01*
X6452000Y30752000D01*
X5764250Y30752000D01*
X5669000Y30656750D01*
X5667157Y30400000D01*
X2127000Y30400000D01*
X2127000Y30599833D01*
X2892589Y30599833D01*
X2965265Y30408000D01*
X4052000Y30408000D01*
X4052000Y31494816D01*
X4148000Y31494816D01*
X4148000Y30408000D01*
X5234735Y30408000D01*
X5307411Y30599833D01*
X5307286Y30600479D01*
X5237173Y30831388D01*
X5123359Y31044182D01*
X4995413Y31200000D01*
X5667157Y31200000D01*
X5669000Y30943250D01*
X5764250Y30848000D01*
X6452000Y30848000D01*
X6452000Y31485750D01*
X6548000Y31485750D01*
X6548000Y30848000D01*
X7235750Y30848000D01*
X7331000Y30943250D01*
X7332843Y31200000D01*
X7325487Y31274689D01*
X7303701Y31346508D01*
X7268322Y31412696D01*
X7220711Y31470711D01*
X7162696Y31518322D01*
X7096508Y31553701D01*
X7024689Y31575487D01*
X6950000Y31582843D01*
X6643250Y31581000D01*
X6548000Y31485750D01*
X6452000Y31485750D01*
X6356750Y31581000D01*
X6050000Y31582843D01*
X5975311Y31575487D01*
X5903492Y31553701D01*
X5837304Y31518322D01*
X5779289Y31470711D01*
X5731678Y31412696D01*
X5696299Y31346508D01*
X5674513Y31274689D01*
X5667157Y31200000D01*
X4995413Y31200000D01*
X4970218Y31230683D01*
X4783635Y31383724D01*
X4570780Y31497424D01*
X4339834Y31567413D01*
X4148000Y31494816D01*
X4052000Y31494816D01*
X3860166Y31567413D01*
X3629220Y31497424D01*
X3416365Y31383724D01*
X3229782Y31230683D01*
X3076641Y31044182D01*
X2962827Y30831388D01*
X2892714Y30600479D01*
X2892589Y30599833D01*
X2127000Y30599833D01*
X2127000Y31239903D01*
X2140830Y31344715D01*
X2178143Y31434574D01*
X2237485Y31511679D01*
X2262767Y31530996D01*
X2323078Y31519000D01*
X2476922Y31519000D01*
X2627809Y31549013D01*
X2769942Y31607887D01*
X2788434Y31620243D01*
X7967157Y31602136D01*
M02*
